<?xml version="1.0" encoding="utf-8"?>
<svg xmlns="http://www.w3.org/2000/svg" xmlns:xlink="http://www.w3.org/1999/xlink" width="690" height="460" viewBox="0 0 2760 1840">
<defs>
  <clipPath id="clip810">
    <rect x="0" y="0" width="2760" height="1840"/>
  </clipPath>
</defs>
<path clip-path="url(#clip810)" d="
M0 1840 L2760 1840 L2760 0 L0 0  Z
  " fill="#ffffff" fill-rule="evenodd" fill-opacity="1"/>
<defs>
  <clipPath id="clip811">
    <rect x="552" y="0" width="1933" height="1840"/>
  </clipPath>
</defs>
<path clip-path="url(#clip810)" d="
M242.737 1695.29 L2705.67 1695.29 L2705.67 54.3307 L242.737 54.3307  Z
  " fill="#ffffff" fill-rule="evenodd" fill-opacity="1"/>
<defs>
  <clipPath id="clip812">
    <rect x="242" y="54" width="2464" height="1642"/>
  </clipPath>
</defs>
<polyline clip-path="url(#clip812)" style="stroke:#000000; stroke-width:2.3; stroke-opacity:0.1; fill:none" points="
  581.249,1695.29 581.249,54.3307 
  "/>
<polyline clip-path="url(#clip812)" style="stroke:#000000; stroke-width:2.3; stroke-opacity:0.1; fill:none" points="
  1027.73,1695.29 1027.73,54.3307 
  "/>
<polyline clip-path="url(#clip812)" style="stroke:#000000; stroke-width:2.3; stroke-opacity:0.1; fill:none" points="
  1474.2,1695.29 1474.2,54.3307 
  "/>
<polyline clip-path="url(#clip812)" style="stroke:#000000; stroke-width:2.3; stroke-opacity:0.1; fill:none" points="
  1920.68,1695.29 1920.68,54.3307 
  "/>
<polyline clip-path="url(#clip812)" style="stroke:#000000; stroke-width:2.3; stroke-opacity:0.1; fill:none" points="
  2367.16,1695.29 2367.16,54.3307 
  "/>
<polyline clip-path="url(#clip810)" style="stroke:#000000; stroke-width:4.6; stroke-opacity:1; fill:none" points="
  242.737,1695.29 2705.67,1695.29 
  "/>
<polyline clip-path="url(#clip810)" style="stroke:#000000; stroke-width:4.6; stroke-opacity:1; fill:none" points="
  581.249,1695.29 581.249,1675.6 
  "/>
<polyline clip-path="url(#clip810)" style="stroke:#000000; stroke-width:4.6; stroke-opacity:1; fill:none" points="
  1027.73,1695.29 1027.73,1675.6 
  "/>
<polyline clip-path="url(#clip810)" style="stroke:#000000; stroke-width:4.6; stroke-opacity:1; fill:none" points="
  1474.2,1695.29 1474.2,1675.6 
  "/>
<polyline clip-path="url(#clip810)" style="stroke:#000000; stroke-width:4.6; stroke-opacity:1; fill:none" points="
  1920.68,1695.29 1920.68,1675.6 
  "/>
<polyline clip-path="url(#clip810)" style="stroke:#000000; stroke-width:4.6; stroke-opacity:1; fill:none" points="
  2367.16,1695.29 2367.16,1675.6 
  "/>
<path clip-path="url(#clip810)" d="M 0 0 M527.132 1785.3 L535.917 1785.3 L535.917 1754.98 L526.36 1756.9 L526.36 1752 L535.864 1750.08 L541.241 1750.08 L541.241 1785.3 L550.026 1785.3 L550.026 1789.83 L527.132 1789.83 L527.132 1785.3 Z" fill="#000000" fill-rule="evenodd" fill-opacity="1" /><path clip-path="url(#clip810)" d="M 0 0 M567.355 1753.62 Q563.203 1753.62 561.1 1757.72 Q559.023 1761.8 559.023 1770 Q559.023 1778.17 561.1 1782.27 Q563.203 1786.34 567.355 1786.34 Q571.535 1786.34 573.611 1782.27 Q575.714 1778.17 575.714 1770 Q575.714 1761.8 573.611 1757.72 Q571.535 1753.62 567.355 1753.62 M567.355 1749.36 Q574.037 1749.36 577.551 1754.66 Q581.091 1759.93 581.091 1770 Q581.091 1780.03 577.551 1785.33 Q574.037 1790.6 567.355 1790.6 Q560.674 1790.6 557.133 1785.33 Q553.619 1780.03 553.619 1770 Q553.619 1759.93 557.133 1754.66 Q560.674 1749.36 567.355 1749.36 Z" fill="#000000" fill-rule="evenodd" fill-opacity="1" /><path clip-path="url(#clip810)" d="M 0 0 M586.347 1754.63 L601.596 1754.63 L601.596 1758.31 L581.091 1758.31 L581.091 1754.63 Q583.579 1752.05 587.861 1747.73 Q592.166 1743.38 593.269 1742.13 Q595.367 1739.77 596.188 1738.15 Q597.032 1736.5 597.032 1734.92 Q597.032 1732.35 595.215 1730.73 Q593.42 1729.11 590.522 1729.11 Q588.467 1729.11 586.174 1729.82 Q583.903 1730.53 581.308 1731.98 L581.308 1727.57 Q583.947 1726.51 586.239 1725.97 Q588.532 1725.43 590.435 1725.43 Q595.453 1725.43 598.438 1727.94 Q601.423 1730.45 601.423 1734.64 Q601.423 1736.63 600.666 1738.43 Q599.93 1740.2 597.962 1742.62 Q597.421 1743.25 594.523 1746.26 Q591.625 1749.24 586.347 1754.63 Z" fill="#000000" fill-rule="evenodd" fill-opacity="1" /><path clip-path="url(#clip810)" d="M 0 0 M606.332 1752.81 L610.896 1752.81 L610.896 1758.31 L606.332 1758.31 L606.332 1752.81 Z" fill="#000000" fill-rule="evenodd" fill-opacity="1" /><path clip-path="url(#clip810)" d="M 0 0 M624.977 1728.89 Q621.602 1728.89 619.894 1732.22 Q618.207 1735.53 618.207 1742.19 Q618.207 1748.83 619.894 1752.16 Q621.602 1755.47 624.977 1755.47 Q628.372 1755.47 630.059 1752.16 Q631.768 1748.83 631.768 1742.19 Q631.768 1735.53 630.059 1732.22 Q628.372 1728.89 624.977 1728.89 M624.977 1725.43 Q630.405 1725.43 633.26 1729.73 Q636.137 1734.02 636.137 1742.19 Q636.137 1750.35 633.26 1754.65 Q630.405 1758.93 624.977 1758.93 Q619.548 1758.93 616.671 1754.65 Q613.816 1750.35 613.816 1742.19 Q613.816 1734.02 616.671 1729.73 Q619.548 1725.43 624.977 1725.43 Z" fill="#000000" fill-rule="evenodd" fill-opacity="1" /><path clip-path="url(#clip810)" d="M 0 0 M974.075 1785.3 L982.859 1785.3 L982.859 1754.98 L973.303 1756.9 L973.303 1752 L982.806 1750.08 L988.183 1750.08 L988.183 1785.3 L996.968 1785.3 L996.968 1789.83 L974.075 1789.83 L974.075 1785.3 Z" fill="#000000" fill-rule="evenodd" fill-opacity="1" /><path clip-path="url(#clip810)" d="M 0 0 M1014.3 1753.62 Q1010.14 1753.62 1008.04 1757.72 Q1005.97 1761.8 1005.97 1770 Q1005.97 1778.17 1008.04 1782.27 Q1010.14 1786.34 1014.3 1786.34 Q1018.48 1786.34 1020.55 1782.27 Q1022.66 1778.17 1022.66 1770 Q1022.66 1761.8 1020.55 1757.72 Q1018.48 1753.62 1014.3 1753.62 M1014.3 1749.36 Q1020.98 1749.36 1024.49 1754.66 Q1028.03 1759.93 1028.03 1770 Q1028.03 1780.03 1024.49 1785.33 Q1020.98 1790.6 1014.3 1790.6 Q1007.62 1790.6 1004.08 1785.33 Q1000.56 1780.03 1000.56 1770 Q1000.56 1759.93 1004.08 1754.66 Q1007.62 1749.36 1014.3 1749.36 Z" fill="#000000" fill-rule="evenodd" fill-opacity="1" /><path clip-path="url(#clip810)" d="M 0 0 M1033.29 1754.63 L1048.54 1754.63 L1048.54 1758.31 L1028.03 1758.31 L1028.03 1754.63 Q1030.52 1752.05 1034.8 1747.73 Q1039.11 1743.38 1040.21 1742.13 Q1042.31 1739.77 1043.13 1738.15 Q1043.97 1736.5 1043.97 1734.92 Q1043.97 1732.35 1042.16 1730.73 Q1040.36 1729.11 1037.46 1729.11 Q1035.41 1729.11 1033.12 1729.82 Q1030.85 1730.53 1028.25 1731.98 L1028.25 1727.57 Q1030.89 1726.51 1033.18 1725.97 Q1035.47 1725.43 1037.38 1725.43 Q1042.4 1725.43 1045.38 1727.94 Q1048.36 1730.45 1048.36 1734.64 Q1048.36 1736.63 1047.61 1738.43 Q1046.87 1740.2 1044.9 1742.62 Q1044.36 1743.25 1041.47 1746.26 Q1038.57 1749.24 1033.29 1754.63 Z" fill="#000000" fill-rule="evenodd" fill-opacity="1" /><path clip-path="url(#clip810)" d="M 0 0 M1053.27 1752.81 L1057.84 1752.81 L1057.84 1758.31 L1053.27 1758.31 L1053.27 1752.81 Z" fill="#000000" fill-rule="evenodd" fill-opacity="1" /><path clip-path="url(#clip810)" d="M 0 0 M1062.62 1726.01 L1079.77 1726.01 L1079.77 1729.69 L1066.62 1729.69 L1066.62 1737.61 Q1067.57 1737.28 1068.52 1737.13 Q1069.47 1736.96 1070.43 1736.96 Q1075.83 1736.96 1078.99 1739.92 Q1082.15 1742.88 1082.15 1747.95 Q1082.15 1753.16 1078.9 1756.06 Q1075.66 1758.93 1069.76 1758.93 Q1067.72 1758.93 1065.6 1758.59 Q1063.51 1758.24 1061.26 1757.55 L1061.26 1753.16 Q1063.2 1754.22 1065.28 1754.74 Q1067.36 1755.26 1069.67 1755.26 Q1073.41 1755.26 1075.6 1753.29 Q1077.78 1751.32 1077.78 1747.95 Q1077.78 1744.57 1075.6 1742.6 Q1073.41 1740.63 1069.67 1740.63 Q1067.92 1740.63 1066.17 1741.02 Q1064.44 1741.41 1062.62 1742.24 L1062.62 1726.01 Z" fill="#000000" fill-rule="evenodd" fill-opacity="1" /><path clip-path="url(#clip810)" d="M 0 0 M1419.71 1785.3 L1428.49 1785.3 L1428.49 1754.98 L1418.94 1756.9 L1418.94 1752 L1428.44 1750.08 L1433.82 1750.08 L1433.82 1785.3 L1442.6 1785.3 L1442.6 1789.83 L1419.71 1789.83 L1419.71 1785.3 Z" fill="#000000" fill-rule="evenodd" fill-opacity="1" /><path clip-path="url(#clip810)" d="M 0 0 M1459.93 1753.62 Q1455.78 1753.62 1453.68 1757.72 Q1451.6 1761.8 1451.6 1770 Q1451.6 1778.17 1453.68 1782.27 Q1455.78 1786.34 1459.93 1786.34 Q1464.11 1786.34 1466.19 1782.27 Q1468.29 1778.17 1468.29 1770 Q1468.29 1761.8 1466.19 1757.72 Q1464.11 1753.62 1459.93 1753.62 M1459.93 1749.36 Q1466.61 1749.36 1470.13 1754.66 Q1473.67 1759.93 1473.67 1770 Q1473.67 1780.03 1470.13 1785.33 Q1466.61 1790.6 1459.93 1790.6 Q1453.25 1790.6 1449.71 1785.33 Q1446.2 1780.03 1446.2 1770 Q1446.2 1759.93 1449.71 1754.66 Q1453.25 1749.36 1459.93 1749.36 Z" fill="#000000" fill-rule="evenodd" fill-opacity="1" /><path clip-path="url(#clip810)" d="M 0 0 M1488.27 1740.89 Q1491.4 1741.56 1493.16 1743.68 Q1494.93 1745.8 1494.93 1748.92 Q1494.93 1753.7 1491.64 1756.32 Q1488.35 1758.93 1482.3 1758.93 Q1480.26 1758.93 1478.1 1758.52 Q1475.96 1758.13 1473.67 1757.33 L1473.67 1753.11 Q1475.48 1754.17 1477.65 1754.72 Q1479.81 1755.26 1482.17 1755.26 Q1486.28 1755.26 1488.42 1753.63 Q1490.58 1752.01 1490.58 1748.92 Q1490.58 1746.06 1488.57 1744.46 Q1486.58 1742.84 1483.01 1742.84 L1479.25 1742.84 L1479.25 1739.25 L1483.18 1739.25 Q1486.41 1739.25 1488.12 1737.97 Q1489.82 1736.68 1489.82 1734.25 Q1489.82 1731.77 1488.05 1730.45 Q1486.3 1729.11 1483.01 1729.11 Q1481.22 1729.11 1479.16 1729.5 Q1477.11 1729.89 1474.64 1730.71 L1474.64 1726.81 Q1477.13 1726.12 1479.29 1725.78 Q1481.48 1725.43 1483.4 1725.43 Q1488.38 1725.43 1491.27 1727.7 Q1494.17 1729.95 1494.17 1733.8 Q1494.17 1736.48 1492.64 1738.34 Q1491.1 1740.18 1488.27 1740.89 Z" fill="#000000" fill-rule="evenodd" fill-opacity="1" /><path clip-path="url(#clip810)" d="M 0 0 M1499.67 1752.81 L1504.23 1752.81 L1504.23 1758.31 L1499.67 1758.31 L1499.67 1752.81 Z" fill="#000000" fill-rule="evenodd" fill-opacity="1" /><path clip-path="url(#clip810)" d="M 0 0 M1518.31 1728.89 Q1514.94 1728.89 1513.23 1732.22 Q1511.54 1735.53 1511.54 1742.19 Q1511.54 1748.83 1513.23 1752.16 Q1514.94 1755.47 1518.31 1755.47 Q1521.71 1755.47 1523.39 1752.16 Q1525.1 1748.83 1525.1 1742.19 Q1525.1 1735.53 1523.39 1732.22 Q1521.71 1728.89 1518.31 1728.89 M1518.31 1725.43 Q1523.74 1725.43 1526.59 1729.73 Q1529.47 1734.02 1529.47 1742.19 Q1529.47 1750.35 1526.59 1754.65 Q1523.74 1758.93 1518.31 1758.93 Q1512.88 1758.93 1510 1754.65 Q1507.15 1750.35 1507.15 1742.19 Q1507.15 1734.02 1510 1729.73 Q1512.88 1725.43 1518.31 1725.43 Z" fill="#000000" fill-rule="evenodd" fill-opacity="1" /><path clip-path="url(#clip810)" d="M 0 0 M1866.65 1785.3 L1875.44 1785.3 L1875.44 1754.98 L1865.88 1756.9 L1865.88 1752 L1875.38 1750.08 L1880.76 1750.08 L1880.76 1785.3 L1889.54 1785.3 L1889.54 1789.83 L1866.65 1789.83 L1866.65 1785.3 Z" fill="#000000" fill-rule="evenodd" fill-opacity="1" /><path clip-path="url(#clip810)" d="M 0 0 M1906.87 1753.62 Q1902.72 1753.62 1900.62 1757.72 Q1898.54 1761.8 1898.54 1770 Q1898.54 1778.17 1900.62 1782.27 Q1902.72 1786.34 1906.87 1786.34 Q1911.05 1786.34 1913.13 1782.27 Q1915.23 1778.17 1915.23 1770 Q1915.23 1761.8 1913.13 1757.72 Q1911.05 1753.62 1906.87 1753.62 M1906.87 1749.36 Q1913.56 1749.36 1917.07 1754.66 Q1920.61 1759.93 1920.61 1770 Q1920.61 1780.03 1917.07 1785.33 Q1913.56 1790.6 1906.87 1790.6 Q1900.19 1790.6 1896.65 1785.33 Q1893.14 1780.03 1893.14 1770 Q1893.14 1759.93 1896.65 1754.66 Q1900.19 1749.36 1906.87 1749.36 Z" fill="#000000" fill-rule="evenodd" fill-opacity="1" /><path clip-path="url(#clip810)" d="M 0 0 M1935.21 1740.89 Q1938.35 1741.56 1940.1 1743.68 Q1941.87 1745.8 1941.87 1748.92 Q1941.87 1753.7 1938.58 1756.32 Q1935.3 1758.93 1929.24 1758.93 Q1927.21 1758.93 1925.04 1758.52 Q1922.9 1758.13 1920.61 1757.33 L1920.61 1753.11 Q1922.43 1754.17 1924.59 1754.72 Q1926.75 1755.26 1929.11 1755.26 Q1933.22 1755.26 1935.36 1753.63 Q1937.52 1752.01 1937.52 1748.92 Q1937.52 1746.06 1935.51 1744.46 Q1933.52 1742.84 1929.95 1742.84 L1926.19 1742.84 L1926.19 1739.25 L1930.13 1739.25 Q1933.35 1739.25 1935.06 1737.97 Q1936.77 1736.68 1936.77 1734.25 Q1936.77 1731.77 1934.99 1730.45 Q1933.24 1729.11 1929.95 1729.11 Q1928.16 1729.11 1926.1 1729.5 Q1924.05 1729.89 1921.58 1730.71 L1921.58 1726.81 Q1924.07 1726.12 1926.23 1725.78 Q1928.42 1725.43 1930.34 1725.43 Q1935.32 1725.43 1938.22 1727.7 Q1941.11 1729.95 1941.11 1733.8 Q1941.11 1736.48 1939.58 1738.34 Q1938.04 1740.18 1935.21 1740.89 Z" fill="#000000" fill-rule="evenodd" fill-opacity="1" /><path clip-path="url(#clip810)" d="M 0 0 M1946.61 1752.81 L1951.17 1752.81 L1951.17 1758.31 L1946.61 1758.31 L1946.61 1752.81 Z" fill="#000000" fill-rule="evenodd" fill-opacity="1" /><path clip-path="url(#clip810)" d="M 0 0 M1955.95 1726.01 L1973.1 1726.01 L1973.1 1729.69 L1959.95 1729.69 L1959.95 1737.61 Q1960.9 1737.28 1961.86 1737.13 Q1962.81 1736.96 1963.76 1736.96 Q1969.17 1736.96 1972.32 1739.92 Q1975.48 1742.88 1975.48 1747.95 Q1975.48 1753.16 1972.24 1756.06 Q1968.99 1758.93 1963.09 1758.93 Q1961.06 1758.93 1958.94 1758.59 Q1956.84 1758.24 1954.59 1757.55 L1954.59 1753.16 Q1956.54 1754.22 1958.61 1754.74 Q1960.69 1755.26 1963 1755.26 Q1966.74 1755.26 1968.93 1753.29 Q1971.11 1751.32 1971.11 1747.95 Q1971.11 1744.57 1968.93 1742.6 Q1966.74 1740.63 1963 1740.63 Q1961.25 1740.63 1959.5 1741.02 Q1957.77 1741.41 1955.95 1742.24 L1955.95 1726.01 Z" fill="#000000" fill-rule="evenodd" fill-opacity="1" /><path clip-path="url(#clip810)" d="M 0 0 M2311.53 1785.3 L2320.31 1785.3 L2320.31 1754.98 L2310.76 1756.9 L2310.76 1752 L2320.26 1750.08 L2325.64 1750.08 L2325.64 1785.3 L2334.42 1785.3 L2334.42 1789.83 L2311.53 1789.83 L2311.53 1785.3 Z" fill="#000000" fill-rule="evenodd" fill-opacity="1" /><path clip-path="url(#clip810)" d="M 0 0 M2351.75 1753.62 Q2347.6 1753.62 2345.49 1757.72 Q2343.42 1761.8 2343.42 1770 Q2343.42 1778.17 2345.49 1782.27 Q2347.6 1786.34 2351.75 1786.34 Q2355.93 1786.34 2358.01 1782.27 Q2360.11 1778.17 2360.11 1770 Q2360.11 1761.8 2358.01 1757.72 Q2355.93 1753.62 2351.75 1753.62 M2351.75 1749.36 Q2358.43 1749.36 2361.95 1754.66 Q2365.49 1759.93 2365.49 1770 Q2365.49 1780.03 2361.95 1785.33 Q2358.43 1790.6 2351.75 1790.6 Q2345.07 1790.6 2341.53 1785.33 Q2338.01 1780.03 2338.01 1770 Q2338.01 1759.93 2341.53 1754.66 Q2345.07 1749.36 2351.75 1749.36 Z" fill="#000000" fill-rule="evenodd" fill-opacity="1" /><path clip-path="url(#clip810)" d="M 0 0 M2380.06 1729.82 L2369.03 1747.06 L2380.06 1747.06 L2380.06 1729.82 M2378.92 1726.01 L2384.41 1726.01 L2384.41 1747.06 L2389.02 1747.06 L2389.02 1750.69 L2384.41 1750.69 L2384.41 1758.31 L2380.06 1758.31 L2380.06 1750.69 L2365.49 1750.69 L2365.49 1746.47 L2378.92 1726.01 Z" fill="#000000" fill-rule="evenodd" fill-opacity="1" /><path clip-path="url(#clip810)" d="M 0 0 M2393.76 1752.81 L2398.32 1752.81 L2398.32 1758.31 L2393.76 1758.31 L2393.76 1752.81 Z" fill="#000000" fill-rule="evenodd" fill-opacity="1" /><path clip-path="url(#clip810)" d="M 0 0 M2412.4 1728.89 Q2409.03 1728.89 2407.32 1732.22 Q2405.63 1735.53 2405.63 1742.19 Q2405.63 1748.83 2407.32 1752.16 Q2409.03 1755.47 2412.4 1755.47 Q2415.8 1755.47 2417.48 1752.16 Q2419.19 1748.83 2419.19 1742.19 Q2419.19 1735.53 2417.48 1732.22 Q2415.8 1728.89 2412.4 1728.89 M2412.4 1725.43 Q2417.83 1725.43 2420.68 1729.73 Q2423.56 1734.02 2423.56 1742.19 Q2423.56 1750.35 2420.68 1754.65 Q2417.83 1758.93 2412.4 1758.93 Q2406.97 1758.93 2404.09 1754.65 Q2401.24 1750.35 2401.24 1742.19 Q2401.24 1734.02 2404.09 1729.73 Q2406.97 1725.43 2412.4 1725.43 Z" fill="#000000" fill-rule="evenodd" fill-opacity="1" /><polyline clip-path="url(#clip812)" style="stroke:#000000; stroke-width:2.3; stroke-opacity:0.1; fill:none" points="
  242.737,1516.9 2705.67,1516.9 
  "/>
<polyline clip-path="url(#clip812)" style="stroke:#000000; stroke-width:2.3; stroke-opacity:0.1; fill:none" points="
  242.737,1104.85 2705.67,1104.85 
  "/>
<polyline clip-path="url(#clip812)" style="stroke:#000000; stroke-width:2.3; stroke-opacity:0.1; fill:none" points="
  242.737,692.806 2705.67,692.806 
  "/>
<polyline clip-path="url(#clip812)" style="stroke:#000000; stroke-width:2.3; stroke-opacity:0.1; fill:none" points="
  242.737,280.761 2705.67,280.761 
  "/>
<polyline clip-path="url(#clip810)" style="stroke:#000000; stroke-width:4.6; stroke-opacity:1; fill:none" points="
  242.737,1695.29 242.737,54.3307 
  "/>
<polyline clip-path="url(#clip810)" style="stroke:#000000; stroke-width:4.6; stroke-opacity:1; fill:none" points="
  242.737,1516.9 272.292,1516.9 
  "/>
<polyline clip-path="url(#clip810)" style="stroke:#000000; stroke-width:4.6; stroke-opacity:1; fill:none" points="
  242.737,1104.85 272.292,1104.85 
  "/>
<polyline clip-path="url(#clip810)" style="stroke:#000000; stroke-width:4.6; stroke-opacity:1; fill:none" points="
  242.737,692.806 272.292,692.806 
  "/>
<polyline clip-path="url(#clip810)" style="stroke:#000000; stroke-width:4.6; stroke-opacity:1; fill:none" points="
  242.737,280.761 272.292,280.761 
  "/>
<path clip-path="url(#clip810)" d="M 0 0 M59.4129 1539.66 L68.1976 1539.66 L68.1976 1509.34 L58.6409 1511.25 L58.6409 1506.36 L68.1444 1504.44 L73.5217 1504.44 L73.5217 1539.66 L82.3063 1539.66 L82.3063 1544.18 L59.4129 1544.18 L59.4129 1539.66 Z" fill="#000000" fill-rule="evenodd" fill-opacity="1" /><path clip-path="url(#clip810)" d="M 0 0 M99.6361 1507.98 Q95.4833 1507.98 93.3803 1512.08 Q91.304 1516.15 91.304 1524.35 Q91.304 1532.52 93.3803 1536.62 Q95.4833 1540.7 99.6361 1540.7 Q103.815 1540.7 105.892 1536.62 Q107.995 1532.52 107.995 1524.35 Q107.995 1516.15 105.892 1512.08 Q103.815 1507.98 99.6361 1507.98 M99.6361 1503.72 Q106.318 1503.72 109.832 1509.02 Q113.372 1514.29 113.372 1524.35 Q113.372 1534.39 109.832 1539.68 Q106.318 1544.96 99.6361 1544.96 Q92.9544 1544.96 89.4139 1539.68 Q85.9001 1534.39 85.9001 1524.35 Q85.9001 1514.29 89.4139 1509.02 Q92.9544 1503.72 99.6361 1503.72 Z" fill="#000000" fill-rule="evenodd" fill-opacity="1" /><path clip-path="url(#clip810)" d="M 0 0 M113.372 1496.94 L141.1 1496.94 L141.1 1500.61 L113.372 1500.61 L113.372 1496.94 Z" fill="#000000" fill-rule="evenodd" fill-opacity="1" /><path clip-path="url(#clip810)" d="M 0 0 M157.841 1484.18 L146.81 1501.41 L157.841 1501.41 L157.841 1484.18 M156.695 1480.37 L162.189 1480.37 L162.189 1501.41 L166.796 1501.41 L166.796 1505.05 L162.189 1505.05 L162.189 1512.66 L157.841 1512.66 L157.841 1505.05 L143.263 1505.05 L143.263 1500.83 L156.695 1480.37 Z" fill="#000000" fill-rule="evenodd" fill-opacity="1" /><path clip-path="url(#clip810)" d="M 0 0 M171.532 1507.17 L176.096 1507.17 L176.096 1512.66 L171.532 1512.66 L171.532 1507.17 Z" fill="#000000" fill-rule="evenodd" fill-opacity="1" /><path clip-path="url(#clip810)" d="M 0 0 M190.176 1483.25 Q186.802 1483.25 185.094 1486.58 Q183.407 1489.89 183.407 1496.55 Q183.407 1503.19 185.094 1506.52 Q186.802 1509.83 190.176 1509.83 Q193.572 1509.83 195.259 1506.52 Q196.968 1503.19 196.968 1496.55 Q196.968 1489.89 195.259 1486.58 Q193.572 1483.25 190.176 1483.25 M190.176 1479.79 Q195.605 1479.79 198.46 1484.09 Q201.337 1488.37 201.337 1496.55 Q201.337 1504.7 198.46 1509.01 Q195.605 1513.29 190.176 1513.29 Q184.748 1513.29 181.871 1509.01 Q179.016 1504.7 179.016 1496.55 Q179.016 1488.37 181.871 1484.09 Q184.748 1479.79 190.176 1479.79 Z" fill="#000000" fill-rule="evenodd" fill-opacity="1" /><path clip-path="url(#clip810)" d="M 0 0 M61.4028 1127.61 L70.1875 1127.61 L70.1875 1097.29 L60.6308 1099.21 L60.6308 1094.31 L70.1342 1092.39 L75.5115 1092.39 L75.5115 1127.61 L84.2962 1127.61 L84.2962 1132.14 L61.4028 1132.14 L61.4028 1127.61 Z" fill="#000000" fill-rule="evenodd" fill-opacity="1" /><path clip-path="url(#clip810)" d="M 0 0 M101.626 1095.93 Q97.4732 1095.93 95.3702 1100.03 Q93.2938 1104.11 93.2938 1112.31 Q93.2938 1120.48 95.3702 1124.58 Q97.4732 1128.65 101.626 1128.65 Q105.805 1128.65 107.882 1124.58 Q109.985 1120.48 109.985 1112.31 Q109.985 1104.11 107.882 1100.03 Q105.805 1095.93 101.626 1095.93 M101.626 1091.68 Q108.308 1091.68 111.822 1096.97 Q115.362 1102.24 115.362 1112.31 Q115.362 1122.34 111.822 1127.64 Q108.308 1132.91 101.626 1132.91 Q94.9443 1132.91 91.4038 1127.64 Q87.8899 1122.34 87.8899 1112.31 Q87.8899 1102.24 91.4038 1096.97 Q94.9443 1091.68 101.626 1091.68 Z" fill="#000000" fill-rule="evenodd" fill-opacity="1" /><path clip-path="url(#clip810)" d="M 0 0 M115.362 1084.89 L143.09 1084.89 L143.09 1088.57 L115.362 1088.57 L115.362 1084.89 Z" fill="#000000" fill-rule="evenodd" fill-opacity="1" /><path clip-path="url(#clip810)" d="M 0 0 M161.064 1083.2 Q164.2 1083.88 165.952 1085.99 Q167.726 1088.11 167.726 1091.23 Q167.726 1096.01 164.438 1098.63 Q161.15 1101.24 155.094 1101.24 Q153.061 1101.24 150.898 1100.83 Q148.757 1100.44 146.464 1099.64 L146.464 1095.43 Q148.281 1096.48 150.444 1097.03 Q152.607 1097.57 154.965 1097.57 Q159.074 1097.57 161.215 1095.94 Q163.378 1094.32 163.378 1091.23 Q163.378 1088.37 161.367 1086.77 Q159.377 1085.15 155.808 1085.15 L152.045 1085.15 L152.045 1081.56 L155.981 1081.56 Q159.204 1081.56 160.913 1080.28 Q162.621 1078.99 162.621 1076.56 Q162.621 1074.08 160.848 1072.76 Q159.096 1071.42 155.808 1071.42 Q154.013 1071.42 151.958 1071.81 Q149.903 1072.2 147.438 1073.02 L147.438 1069.12 Q149.925 1068.43 152.088 1068.09 Q154.272 1067.74 156.197 1067.74 Q161.172 1067.74 164.07 1070.01 Q166.969 1072.26 166.969 1076.11 Q166.969 1078.79 165.433 1080.65 Q163.897 1082.49 161.064 1083.2 Z" fill="#000000" fill-rule="evenodd" fill-opacity="1" /><path clip-path="url(#clip810)" d="M 0 0 M172.462 1095.12 L177.026 1095.12 L177.026 1100.62 L172.462 1100.62 L172.462 1095.12 Z" fill="#000000" fill-rule="evenodd" fill-opacity="1" /><path clip-path="url(#clip810)" d="M 0 0 M181.806 1068.32 L198.958 1068.32 L198.958 1072 L185.807 1072 L185.807 1079.92 Q186.759 1079.59 187.711 1079.44 Q188.662 1079.27 189.614 1079.27 Q195.021 1079.27 198.179 1082.23 Q201.337 1085.19 201.337 1090.26 Q201.337 1095.47 198.093 1098.37 Q194.848 1101.24 188.944 1101.24 Q186.911 1101.24 184.791 1100.9 Q182.693 1100.55 180.443 1099.86 L180.443 1095.47 Q182.39 1096.53 184.466 1097.05 Q186.543 1097.57 188.857 1097.57 Q192.599 1097.57 194.783 1095.6 Q196.968 1093.63 196.968 1090.26 Q196.968 1086.88 194.783 1084.91 Q192.599 1082.95 188.857 1082.95 Q187.105 1082.95 185.353 1083.33 Q183.623 1083.72 181.806 1084.55 L181.806 1068.32 Z" fill="#000000" fill-rule="evenodd" fill-opacity="1" /><path clip-path="url(#clip810)" d="M 0 0 M60.4727 715.567 L69.2574 715.567 L69.2574 685.247 L59.7008 687.164 L59.7008 682.265 L69.2042 680.349 L74.5815 680.349 L74.5815 715.567 L83.3661 715.567 L83.3661 720.093 L60.4727 720.093 L60.4727 715.567 Z" fill="#000000" fill-rule="evenodd" fill-opacity="1" /><path clip-path="url(#clip810)" d="M 0 0 M100.696 683.889 Q96.5432 683.889 94.4402 687.989 Q92.3638 692.062 92.3638 700.261 Q92.3638 708.433 94.4402 712.533 Q96.5432 716.606 100.696 716.606 Q104.875 716.606 106.952 712.533 Q109.055 708.433 109.055 700.261 Q109.055 692.062 106.952 687.989 Q104.875 683.889 100.696 683.889 M100.696 679.63 Q107.378 679.63 110.891 684.927 Q114.432 690.198 114.432 700.261 Q114.432 710.297 110.891 715.594 Q107.378 720.865 100.696 720.865 Q94.0142 720.865 90.4737 715.594 Q86.9599 710.297 86.9599 700.261 Q86.9599 690.198 90.4737 684.927 Q94.0142 679.63 100.696 679.63 Z" fill="#000000" fill-rule="evenodd" fill-opacity="1" /><path clip-path="url(#clip810)" d="M 0 0 M114.432 672.847 L142.16 672.847 L142.16 676.524 L114.432 676.524 L114.432 672.847 Z" fill="#000000" fill-rule="evenodd" fill-opacity="1" /><path clip-path="url(#clip810)" d="M 0 0 M160.134 671.16 Q163.27 671.83 165.022 673.95 Q166.796 676.069 166.796 679.184 Q166.796 683.964 163.508 686.581 Q160.22 689.198 154.164 689.198 Q152.131 689.198 149.968 688.787 Q147.827 688.398 145.534 687.598 L145.534 683.38 Q147.351 684.44 149.514 684.98 Q151.677 685.521 154.035 685.521 Q158.144 685.521 160.285 683.899 Q162.448 682.277 162.448 679.184 Q162.448 676.329 160.437 674.728 Q158.447 673.106 154.878 673.106 L151.115 673.106 L151.115 669.516 L155.051 669.516 Q158.274 669.516 159.982 668.24 Q161.691 666.942 161.691 664.519 Q161.691 662.032 159.918 660.713 Q158.166 659.372 154.878 659.372 Q153.083 659.372 151.028 659.761 Q148.973 660.15 146.508 660.972 L146.508 657.079 Q148.995 656.387 151.158 656.041 Q153.342 655.695 155.267 655.695 Q160.242 655.695 163.14 657.966 Q166.039 660.215 166.039 664.065 Q166.039 666.747 164.503 668.607 Q162.967 670.446 160.134 671.16 Z" fill="#000000" fill-rule="evenodd" fill-opacity="1" /><path clip-path="url(#clip810)" d="M 0 0 M171.532 683.077 L176.096 683.077 L176.096 688.571 L171.532 688.571 L171.532 683.077 Z" fill="#000000" fill-rule="evenodd" fill-opacity="1" /><path clip-path="url(#clip810)" d="M 0 0 M190.176 659.155 Q186.802 659.155 185.094 662.486 Q183.407 665.796 183.407 672.457 Q183.407 679.097 185.094 682.428 Q186.802 685.737 190.176 685.737 Q193.572 685.737 195.259 682.428 Q196.968 679.097 196.968 672.457 Q196.968 665.796 195.259 662.486 Q193.572 659.155 190.176 659.155 M190.176 655.695 Q195.605 655.695 198.46 659.999 Q201.337 664.282 201.337 672.457 Q201.337 680.611 198.46 684.916 Q195.605 689.198 190.176 689.198 Q184.748 689.198 181.871 684.916 Q179.016 680.611 179.016 672.457 Q179.016 664.282 181.871 659.999 Q184.748 655.695 190.176 655.695 Z" fill="#000000" fill-rule="evenodd" fill-opacity="1" /><path clip-path="url(#clip810)" d="M 0 0 M62.2896 303.522 L71.0743 303.522 L71.0743 273.202 L61.5176 275.118 L61.5176 270.22 L71.021 268.304 L76.3983 268.304 L76.3983 303.522 L85.183 303.522 L85.183 308.048 L62.2896 308.048 L62.2896 303.522 Z" fill="#000000" fill-rule="evenodd" fill-opacity="1" /><path clip-path="url(#clip810)" d="M 0 0 M102.513 271.844 Q98.36 271.844 96.257 275.944 Q94.1806 280.016 94.1806 288.215 Q94.1806 296.388 96.257 300.487 Q98.36 304.56 102.513 304.56 Q106.692 304.56 108.768 300.487 Q110.871 296.388 110.871 288.215 Q110.871 280.016 108.768 275.944 Q106.692 271.844 102.513 271.844 M102.513 267.585 Q109.194 267.585 112.708 272.882 Q116.249 278.153 116.249 288.215 Q116.249 298.251 112.708 303.549 Q109.194 308.82 102.513 308.82 Q95.8311 308.82 92.2906 303.549 Q88.7767 298.251 88.7767 288.215 Q88.7767 278.153 92.2906 272.882 Q95.8311 267.585 102.513 267.585 Z" fill="#000000" fill-rule="evenodd" fill-opacity="1" /><path clip-path="url(#clip810)" d="M 0 0 M116.249 260.801 L143.977 260.801 L143.977 264.478 L116.249 264.478 L116.249 260.801 Z" fill="#000000" fill-rule="evenodd" fill-opacity="1" /><path clip-path="url(#clip810)" d="M 0 0 M152.477 272.849 L167.726 272.849 L167.726 276.526 L147.221 276.526 L147.221 272.849 Q149.709 270.275 153.991 265.949 Q158.295 261.602 159.399 260.347 Q161.497 257.99 162.318 256.367 Q163.162 254.724 163.162 253.145 Q163.162 250.571 161.345 248.949 Q159.55 247.327 156.652 247.327 Q154.597 247.327 152.304 248.04 Q150.033 248.754 147.438 250.203 L147.438 245.791 Q150.076 244.731 152.369 244.19 Q154.662 243.65 156.565 243.65 Q161.583 243.65 164.568 246.159 Q167.553 248.667 167.553 252.864 Q167.553 254.853 166.796 256.649 Q166.06 258.422 164.092 260.845 Q163.551 261.472 160.653 264.478 Q157.755 267.463 152.477 272.849 Z" fill="#000000" fill-rule="evenodd" fill-opacity="1" /><path clip-path="url(#clip810)" d="M 0 0 M172.462 271.032 L177.026 271.032 L177.026 276.526 L172.462 276.526 L172.462 271.032 Z" fill="#000000" fill-rule="evenodd" fill-opacity="1" /><path clip-path="url(#clip810)" d="M 0 0 M181.806 244.234 L198.958 244.234 L198.958 247.91 L185.807 247.91 L185.807 255.827 Q186.759 255.502 187.711 255.351 Q188.662 255.178 189.614 255.178 Q195.021 255.178 198.179 258.141 Q201.337 261.104 201.337 266.165 Q201.337 271.378 198.093 274.276 Q194.848 277.153 188.944 277.153 Q186.911 277.153 184.791 276.807 Q182.693 276.461 180.443 275.769 L180.443 271.378 Q182.39 272.438 184.466 272.957 Q186.543 273.476 188.857 273.476 Q192.599 273.476 194.783 271.508 Q196.968 269.539 196.968 266.165 Q196.968 262.791 194.783 260.823 Q192.599 258.855 188.857 258.855 Q187.105 258.855 185.353 259.244 Q183.623 259.633 181.806 260.455 L181.806 244.234 Z" fill="#000000" fill-rule="evenodd" fill-opacity="1" /><polyline clip-path="url(#clip812)" style="stroke:#009af9; stroke-width:4.6; stroke-opacity:1; fill:none" points="
  312.443,1552.2 581.249,1648.85 850.055,1514.49 1205.4,1359.49 1362.64,1064.95 1474.2,1105.97 1575.95,1132.73 1679.98,1152.17 1743.01,1108.69 2011.82,766.456 
  2098.35,745.27 2367.16,604.432 2635.96,100.773 
  "/>
<polyline clip-path="url(#clip812)" style="stroke:#e26f46; stroke-width:4.6; stroke-opacity:1; fill:none" points="
  312.443,1393.28 581.249,1016.44 850.055,864.622 1205.4,1121.03 1362.64,1011.71 1474.2,1092.74 1575.95,963.641 1679.98,1113.92 1743.01,971.546 2011.82,877.858 
  2098.35,804.816 2367.16,510.167 2635.96,106.756 
  "/>
<path clip-path="url(#clip810)" d="
M324.835 317.685 L695.551 317.685 L695.551 109.029 L324.835 109.029  Z
  " fill="#ffffff" fill-rule="evenodd" fill-opacity="1"/>
<polyline clip-path="url(#clip810)" style="stroke:#000000; stroke-width:4.6; stroke-opacity:1; fill:none" points="
  324.835,317.685 695.551,317.685 695.551,109.029 324.835,109.029 324.835,317.685 
  "/>
<polyline clip-path="url(#clip810)" style="stroke:#009af9; stroke-width:4.6; stroke-opacity:1; fill:none" points="
  352.201,178.581 516.396,178.581 
  "/>
<path clip-path="url(#clip810)" d="M 0 0 M565.511 173.164 L565.511 157.032 L570.409 157.032 L570.409 198.453 L565.511 198.453 L565.511 193.981 Q563.967 196.643 561.598 197.948 Q559.255 199.225 555.954 199.225 Q550.55 199.225 547.143 194.913 Q543.762 190.6 543.762 183.573 Q543.762 176.545 547.143 172.232 Q550.55 167.92 555.954 167.92 Q559.255 167.92 561.598 169.224 Q563.967 170.502 565.511 173.164 M548.82 183.573 Q548.82 188.977 551.029 192.064 Q553.265 195.126 557.152 195.126 Q561.039 195.126 563.275 192.064 Q565.511 188.977 565.511 183.573 Q565.511 178.169 563.275 175.107 Q561.039 172.019 557.152 172.019 Q553.265 172.019 551.029 175.107 Q548.82 178.169 548.82 183.573 Z" fill="#000000" fill-rule="evenodd" fill-opacity="1" /><path clip-path="url(#clip810)" d="M 0 0 M575.547 168.639 L580.445 168.639 L580.445 198.453 L575.547 198.453 L575.547 168.639 M575.547 157.032 L580.445 157.032 L580.445 163.235 L575.547 163.235 L575.547 157.032 Z" fill="#000000" fill-rule="evenodd" fill-opacity="1" /><path clip-path="url(#clip810)" d="M 0 0 M607.038 169.783 L607.038 174.362 Q604.962 173.217 602.859 172.658 Q600.783 172.073 598.653 172.073 Q593.888 172.073 591.253 175.107 Q588.617 178.115 588.617 183.573 Q588.617 189.03 591.253 192.064 Q593.888 195.073 598.653 195.073 Q600.783 195.073 602.859 194.514 Q604.962 193.928 607.038 192.783 L607.038 197.309 Q604.989 198.267 602.779 198.746 Q600.596 199.225 598.121 199.225 Q591.386 199.225 587.419 194.993 Q583.453 190.76 583.453 183.573 Q583.453 176.279 587.446 172.099 Q591.466 167.92 598.44 167.92 Q600.703 167.92 602.859 168.399 Q605.015 168.852 607.038 169.783 Z" fill="#000000" fill-rule="evenodd" fill-opacity="1" /><path clip-path="url(#clip810)" d="M 0 0 M617.021 160.173 L617.021 168.639 L627.11 168.639 L627.11 172.445 L617.021 172.445 L617.021 188.63 Q617.021 192.277 618.006 193.316 Q619.017 194.354 622.079 194.354 L627.11 194.354 L627.11 198.453 L622.079 198.453 Q616.409 198.453 614.252 196.35 Q612.096 194.221 612.096 188.63 L612.096 172.445 L608.502 172.445 L608.502 168.639 L612.096 168.639 L612.096 160.173 L617.021 160.173 Z" fill="#000000" fill-rule="evenodd" fill-opacity="1" /><polyline clip-path="url(#clip810)" style="stroke:#e26f46; stroke-width:4.6; stroke-opacity:1; fill:none" points="
  352.201,248.133 516.396,248.133 
  "/>
<path clip-path="url(#clip810)" d="M 0 0 M543.762 228.261 L549.139 228.261 L549.139 263.48 L568.492 263.48 L568.492 268.005 L543.762 268.005 L543.762 228.261 Z" fill="#000000" fill-rule="evenodd" fill-opacity="1" /><path clip-path="url(#clip810)" d="M 0 0 M573.843 228.261 L581.084 228.261 L598.706 261.51 L598.706 228.261 L603.924 228.261 L603.924 268.005 L596.683 268.005 L579.06 234.757 L579.06 268.005 L573.843 268.005 L573.843 228.261 Z" fill="#000000" fill-rule="evenodd" fill-opacity="1" /><path clip-path="url(#clip810)" d="M 0 0 M609.274 228.261 L614.652 228.261 L614.652 245.059 L632.487 228.261 L639.409 228.261 L619.683 246.789 L640.819 268.005 L633.738 268.005 L614.652 248.865 L614.652 268.005 L609.274 268.005 L609.274 228.261 Z" fill="#000000" fill-rule="evenodd" fill-opacity="1" /></svg>
