<?xml version="1.0" encoding="utf-8"?>
<svg xmlns="http://www.w3.org/2000/svg" xmlns:xlink="http://www.w3.org/1999/xlink" width="690" height="460" viewBox="0 0 2760 1840">
<defs>
  <clipPath id="clip680">
    <rect x="0" y="0" width="2760" height="1840"/>
  </clipPath>
</defs>
<path clip-path="url(#clip680)" d="
M0 1840 L2760 1840 L2760 0 L0 0  Z
  " fill="#ffffff" fill-rule="evenodd" fill-opacity="1"/>
<defs>
  <clipPath id="clip681">
    <rect x="552" y="0" width="1933" height="1840"/>
  </clipPath>
</defs>
<path clip-path="url(#clip680)" d="
M241.677 1695.29 L2705.67 1695.29 L2705.67 54.3307 L241.677 54.3307  Z
  " fill="#ffffff" fill-rule="evenodd" fill-opacity="1"/>
<defs>
  <clipPath id="clip682">
    <rect x="241" y="54" width="2465" height="1642"/>
  </clipPath>
</defs>
<polyline clip-path="url(#clip682)" style="stroke:#000000; stroke-width:2.3; stroke-opacity:0.1; fill:none" points="
  580.335,1695.29 580.335,54.3307 
  "/>
<polyline clip-path="url(#clip682)" style="stroke:#000000; stroke-width:2.3; stroke-opacity:0.1; fill:none" points="
  1027,1695.29 1027,54.3307 
  "/>
<polyline clip-path="url(#clip682)" style="stroke:#000000; stroke-width:2.3; stroke-opacity:0.1; fill:none" points="
  1473.67,1695.29 1473.67,54.3307 
  "/>
<polyline clip-path="url(#clip682)" style="stroke:#000000; stroke-width:2.3; stroke-opacity:0.1; fill:none" points="
  1920.34,1695.29 1920.34,54.3307 
  "/>
<polyline clip-path="url(#clip682)" style="stroke:#000000; stroke-width:2.3; stroke-opacity:0.1; fill:none" points="
  2367.01,1695.29 2367.01,54.3307 
  "/>
<polyline clip-path="url(#clip680)" style="stroke:#000000; stroke-width:4.6; stroke-opacity:1; fill:none" points="
  241.677,1695.29 2705.67,1695.29 
  "/>
<polyline clip-path="url(#clip680)" style="stroke:#000000; stroke-width:4.6; stroke-opacity:1; fill:none" points="
  580.335,1695.29 580.335,1675.6 
  "/>
<polyline clip-path="url(#clip680)" style="stroke:#000000; stroke-width:4.6; stroke-opacity:1; fill:none" points="
  1027,1695.29 1027,1675.6 
  "/>
<polyline clip-path="url(#clip680)" style="stroke:#000000; stroke-width:4.6; stroke-opacity:1; fill:none" points="
  1473.67,1695.29 1473.67,1675.6 
  "/>
<polyline clip-path="url(#clip680)" style="stroke:#000000; stroke-width:4.6; stroke-opacity:1; fill:none" points="
  1920.34,1695.29 1920.34,1675.6 
  "/>
<polyline clip-path="url(#clip680)" style="stroke:#000000; stroke-width:4.6; stroke-opacity:1; fill:none" points="
  2367.01,1695.29 2367.01,1675.6 
  "/>
<path clip-path="url(#clip680)" d="M 0 0 M525.84 1785.3 L534.624 1785.3 L534.624 1754.98 L525.068 1756.9 L525.068 1752 L534.571 1750.08 L539.948 1750.08 L539.948 1785.3 L548.733 1785.3 L548.733 1789.83 L525.84 1789.83 L525.84 1785.3 Z" fill="#000000" fill-rule="evenodd" fill-opacity="1" /><path clip-path="url(#clip680)" d="M 0 0 M566.063 1753.62 Q561.91 1753.62 559.807 1757.72 Q557.731 1761.8 557.731 1770 Q557.731 1778.17 559.807 1782.27 Q561.91 1786.34 566.063 1786.34 Q570.242 1786.34 572.319 1782.27 Q574.422 1778.17 574.422 1770 Q574.422 1761.8 572.319 1757.72 Q570.242 1753.62 566.063 1753.62 M566.063 1749.36 Q572.744 1749.36 576.258 1754.66 Q579.799 1759.93 579.799 1770 Q579.799 1780.03 576.258 1785.33 Q572.744 1790.6 566.063 1790.6 Q559.381 1790.6 555.841 1785.33 Q552.327 1780.03 552.327 1770 Q552.327 1759.93 555.841 1754.66 Q559.381 1749.36 566.063 1749.36 Z" fill="#000000" fill-rule="evenodd" fill-opacity="1" /><path clip-path="url(#clip680)" d="M 0 0 M594.398 1740.89 Q597.535 1741.56 599.286 1743.68 Q601.06 1745.8 601.06 1748.92 Q601.06 1753.7 597.772 1756.32 Q594.485 1758.93 588.429 1758.93 Q586.396 1758.93 584.233 1758.52 Q582.091 1758.13 579.799 1757.33 L579.799 1753.11 Q581.616 1754.17 583.779 1754.72 Q585.941 1755.26 588.299 1755.26 Q592.408 1755.26 594.55 1753.63 Q596.713 1752.01 596.713 1748.92 Q596.713 1746.06 594.701 1744.46 Q592.711 1742.84 589.143 1742.84 L585.379 1742.84 L585.379 1739.25 L589.316 1739.25 Q592.538 1739.25 594.247 1737.97 Q595.956 1736.68 595.956 1734.25 Q595.956 1731.77 594.182 1730.45 Q592.43 1729.11 589.143 1729.11 Q587.347 1729.11 585.293 1729.5 Q583.238 1729.89 580.772 1730.71 L580.772 1726.81 Q583.259 1726.12 585.422 1725.78 Q587.607 1725.43 589.532 1725.43 Q594.507 1725.43 597.405 1727.7 Q600.303 1729.95 600.303 1733.8 Q600.303 1736.48 598.767 1738.34 Q597.232 1740.18 594.398 1740.89 Z" fill="#000000" fill-rule="evenodd" fill-opacity="1" /><path clip-path="url(#clip680)" d="M 0 0 M605.797 1752.81 L610.361 1752.81 L610.361 1758.31 L605.797 1758.31 L605.797 1752.81 Z" fill="#000000" fill-rule="evenodd" fill-opacity="1" /><path clip-path="url(#clip680)" d="M 0 0 M624.441 1728.89 Q621.067 1728.89 619.358 1732.22 Q617.671 1735.53 617.671 1742.19 Q617.671 1748.83 619.358 1752.16 Q621.067 1755.47 624.441 1755.47 Q627.837 1755.47 629.524 1752.16 Q631.232 1748.83 631.232 1742.19 Q631.232 1735.53 629.524 1732.22 Q627.837 1728.89 624.441 1728.89 M624.441 1725.43 Q629.87 1725.43 632.725 1729.73 Q635.601 1734.02 635.601 1742.19 Q635.601 1750.35 632.725 1754.65 Q629.87 1758.93 624.441 1758.93 Q619.012 1758.93 616.135 1754.65 Q613.28 1750.35 613.28 1742.19 Q613.28 1734.02 616.135 1729.73 Q619.012 1725.43 624.441 1725.43 Z" fill="#000000" fill-rule="evenodd" fill-opacity="1" /><path clip-path="url(#clip680)" d="M 0 0 M972.974 1785.3 L981.759 1785.3 L981.759 1754.98 L972.202 1756.9 L972.202 1752 L981.705 1750.08 L987.083 1750.08 L987.083 1785.3 L995.867 1785.3 L995.867 1789.83 L972.974 1789.83 L972.974 1785.3 Z" fill="#000000" fill-rule="evenodd" fill-opacity="1" /><path clip-path="url(#clip680)" d="M 0 0 M1013.2 1753.62 Q1009.04 1753.62 1006.94 1757.72 Q1004.87 1761.8 1004.87 1770 Q1004.87 1778.17 1006.94 1782.27 Q1009.04 1786.34 1013.2 1786.34 Q1017.38 1786.34 1019.45 1782.27 Q1021.56 1778.17 1021.56 1770 Q1021.56 1761.8 1019.45 1757.72 Q1017.38 1753.62 1013.2 1753.62 M1013.2 1749.36 Q1019.88 1749.36 1023.39 1754.66 Q1026.93 1759.93 1026.93 1770 Q1026.93 1780.03 1023.39 1785.33 Q1019.88 1790.6 1013.2 1790.6 Q1006.52 1790.6 1002.97 1785.33 Q999.461 1780.03 999.461 1770 Q999.461 1759.93 1002.97 1754.66 Q1006.52 1749.36 1013.2 1749.36 Z" fill="#000000" fill-rule="evenodd" fill-opacity="1" /><path clip-path="url(#clip680)" d="M 0 0 M1041.53 1740.89 Q1044.67 1741.56 1046.42 1743.68 Q1048.19 1745.8 1048.19 1748.92 Q1048.19 1753.7 1044.91 1756.32 Q1041.62 1758.93 1035.56 1758.93 Q1033.53 1758.93 1031.37 1758.52 Q1029.23 1758.13 1026.93 1757.33 L1026.93 1753.11 Q1028.75 1754.17 1030.91 1754.72 Q1033.08 1755.26 1035.43 1755.26 Q1039.54 1755.26 1041.68 1753.63 Q1043.85 1752.01 1043.85 1748.92 Q1043.85 1746.06 1041.84 1744.46 Q1039.85 1742.84 1036.28 1742.84 L1032.51 1742.84 L1032.51 1739.25 L1036.45 1739.25 Q1039.67 1739.25 1041.38 1737.97 Q1043.09 1736.68 1043.09 1734.25 Q1043.09 1731.77 1041.32 1730.45 Q1039.56 1729.11 1036.28 1729.11 Q1034.48 1729.11 1032.43 1729.5 Q1030.37 1729.89 1027.91 1730.71 L1027.91 1726.81 Q1030.39 1726.12 1032.56 1725.78 Q1034.74 1725.43 1036.67 1725.43 Q1041.64 1725.43 1044.54 1727.7 Q1047.44 1729.95 1047.44 1733.8 Q1047.44 1736.48 1045.9 1738.34 Q1044.37 1740.18 1041.53 1740.89 Z" fill="#000000" fill-rule="evenodd" fill-opacity="1" /><path clip-path="url(#clip680)" d="M 0 0 M1052.93 1752.81 L1057.49 1752.81 L1057.49 1758.31 L1052.93 1758.31 L1052.93 1752.81 Z" fill="#000000" fill-rule="evenodd" fill-opacity="1" /><path clip-path="url(#clip680)" d="M 0 0 M1062.27 1726.01 L1079.43 1726.01 L1079.43 1729.69 L1066.28 1729.69 L1066.28 1737.61 Q1067.23 1737.28 1068.18 1737.13 Q1069.13 1736.96 1070.08 1736.96 Q1075.49 1736.96 1078.65 1739.92 Q1081.81 1742.88 1081.81 1747.95 Q1081.81 1753.16 1078.56 1756.06 Q1075.32 1758.93 1069.41 1758.93 Q1067.38 1758.93 1065.26 1758.59 Q1063.16 1758.24 1060.91 1757.55 L1060.91 1753.16 Q1062.86 1754.22 1064.94 1754.74 Q1067.01 1755.26 1069.33 1755.26 Q1073.07 1755.26 1075.25 1753.29 Q1077.44 1751.32 1077.44 1747.95 Q1077.44 1744.57 1075.25 1742.6 Q1073.07 1740.63 1069.33 1740.63 Q1067.57 1740.63 1065.82 1741.02 Q1064.09 1741.41 1062.27 1742.24 L1062.27 1726.01 Z" fill="#000000" fill-rule="evenodd" fill-opacity="1" /><path clip-path="url(#clip680)" d="M 0 0 M1418.04 1785.3 L1426.83 1785.3 L1426.83 1754.98 L1417.27 1756.9 L1417.27 1752 L1426.77 1750.08 L1432.15 1750.08 L1432.15 1785.3 L1440.94 1785.3 L1440.94 1789.83 L1418.04 1789.83 L1418.04 1785.3 Z" fill="#000000" fill-rule="evenodd" fill-opacity="1" /><path clip-path="url(#clip680)" d="M 0 0 M1458.27 1753.62 Q1454.11 1753.62 1452.01 1757.72 Q1449.93 1761.8 1449.93 1770 Q1449.93 1778.17 1452.01 1782.27 Q1454.11 1786.34 1458.27 1786.34 Q1462.45 1786.34 1464.52 1782.27 Q1466.62 1778.17 1466.62 1770 Q1466.62 1761.8 1464.52 1757.72 Q1462.45 1753.62 1458.27 1753.62 M1458.27 1749.36 Q1464.95 1749.36 1468.46 1754.66 Q1472 1759.93 1472 1770 Q1472 1780.03 1468.46 1785.33 Q1464.95 1790.6 1458.27 1790.6 Q1451.58 1790.6 1448.04 1785.33 Q1444.53 1780.03 1444.53 1770 Q1444.53 1759.93 1448.04 1754.66 Q1451.58 1749.36 1458.27 1749.36 Z" fill="#000000" fill-rule="evenodd" fill-opacity="1" /><path clip-path="url(#clip680)" d="M 0 0 M1486.58 1729.82 L1475.55 1747.06 L1486.58 1747.06 L1486.58 1729.82 M1485.43 1726.01 L1490.93 1726.01 L1490.93 1747.06 L1495.53 1747.06 L1495.53 1750.69 L1490.93 1750.69 L1490.93 1758.31 L1486.58 1758.31 L1486.58 1750.69 L1472 1750.69 L1472 1746.47 L1485.43 1726.01 Z" fill="#000000" fill-rule="evenodd" fill-opacity="1" /><path clip-path="url(#clip680)" d="M 0 0 M1500.27 1752.81 L1504.83 1752.81 L1504.83 1758.31 L1500.27 1758.31 L1500.27 1752.81 Z" fill="#000000" fill-rule="evenodd" fill-opacity="1" /><path clip-path="url(#clip680)" d="M 0 0 M1518.92 1728.89 Q1515.54 1728.89 1513.83 1732.22 Q1512.15 1735.53 1512.15 1742.19 Q1512.15 1748.83 1513.83 1752.16 Q1515.54 1755.47 1518.92 1755.47 Q1522.31 1755.47 1524 1752.16 Q1525.71 1748.83 1525.71 1742.19 Q1525.71 1735.53 1524 1732.22 Q1522.31 1728.89 1518.92 1728.89 M1518.92 1725.43 Q1524.34 1725.43 1527.2 1729.73 Q1530.08 1734.02 1530.08 1742.19 Q1530.08 1750.35 1527.2 1754.65 Q1524.34 1758.93 1518.92 1758.93 Q1513.49 1758.93 1510.61 1754.65 Q1507.75 1750.35 1507.75 1742.19 Q1507.75 1734.02 1510.61 1729.73 Q1513.49 1725.43 1518.92 1725.43 Z" fill="#000000" fill-rule="evenodd" fill-opacity="1" /><path clip-path="url(#clip680)" d="M 0 0 M1865.18 1785.3 L1873.96 1785.3 L1873.96 1754.98 L1864.41 1756.9 L1864.41 1752 L1873.91 1750.08 L1879.29 1750.08 L1879.29 1785.3 L1888.07 1785.3 L1888.07 1789.83 L1865.18 1789.83 L1865.18 1785.3 Z" fill="#000000" fill-rule="evenodd" fill-opacity="1" /><path clip-path="url(#clip680)" d="M 0 0 M1905.4 1753.62 Q1901.25 1753.62 1899.14 1757.72 Q1897.07 1761.8 1897.07 1770 Q1897.07 1778.17 1899.14 1782.27 Q1901.25 1786.34 1905.4 1786.34 Q1909.58 1786.34 1911.66 1782.27 Q1913.76 1778.17 1913.76 1770 Q1913.76 1761.8 1911.66 1757.72 Q1909.58 1753.62 1905.4 1753.62 M1905.4 1749.36 Q1912.08 1749.36 1915.6 1754.66 Q1919.14 1759.93 1919.14 1770 Q1919.14 1780.03 1915.6 1785.33 Q1912.08 1790.6 1905.4 1790.6 Q1898.72 1790.6 1895.18 1785.33 Q1891.66 1780.03 1891.66 1770 Q1891.66 1759.93 1895.18 1754.66 Q1898.72 1749.36 1905.4 1749.36 Z" fill="#000000" fill-rule="evenodd" fill-opacity="1" /><path clip-path="url(#clip680)" d="M 0 0 M1933.71 1729.82 L1922.68 1747.06 L1933.71 1747.06 L1933.71 1729.82 M1932.57 1726.01 L1938.06 1726.01 L1938.06 1747.06 L1942.67 1747.06 L1942.67 1750.69 L1938.06 1750.69 L1938.06 1758.31 L1933.71 1758.31 L1933.71 1750.69 L1919.14 1750.69 L1919.14 1746.47 L1932.57 1726.01 Z" fill="#000000" fill-rule="evenodd" fill-opacity="1" /><path clip-path="url(#clip680)" d="M 0 0 M1947.41 1752.81 L1951.97 1752.81 L1951.97 1758.31 L1947.41 1758.31 L1947.41 1752.81 Z" fill="#000000" fill-rule="evenodd" fill-opacity="1" /><path clip-path="url(#clip680)" d="M 0 0 M1956.75 1726.01 L1973.9 1726.01 L1973.9 1729.69 L1960.75 1729.69 L1960.75 1737.61 Q1961.7 1737.28 1962.65 1737.13 Q1963.61 1736.96 1964.56 1736.96 Q1969.96 1736.96 1973.12 1739.92 Q1976.28 1742.88 1976.28 1747.95 Q1976.28 1753.16 1973.04 1756.06 Q1969.79 1758.93 1963.89 1758.93 Q1961.85 1758.93 1959.73 1758.59 Q1957.64 1758.24 1955.39 1757.55 L1955.39 1753.16 Q1957.33 1754.22 1959.41 1754.74 Q1961.49 1755.26 1963.8 1755.26 Q1967.54 1755.26 1969.73 1753.29 Q1971.91 1751.32 1971.91 1747.95 Q1971.91 1744.57 1969.73 1742.6 Q1967.54 1740.63 1963.8 1740.63 Q1962.05 1740.63 1960.3 1741.02 Q1958.57 1741.41 1956.75 1742.24 L1956.75 1726.01 Z" fill="#000000" fill-rule="evenodd" fill-opacity="1" /><path clip-path="url(#clip680)" d="M 0 0 M2312.7 1785.3 L2321.49 1785.3 L2321.49 1754.98 L2311.93 1756.9 L2311.93 1752 L2321.43 1750.08 L2326.81 1750.08 L2326.81 1785.3 L2335.59 1785.3 L2335.59 1789.83 L2312.7 1789.83 L2312.7 1785.3 Z" fill="#000000" fill-rule="evenodd" fill-opacity="1" /><path clip-path="url(#clip680)" d="M 0 0 M2352.92 1753.62 Q2348.77 1753.62 2346.67 1757.72 Q2344.59 1761.8 2344.59 1770 Q2344.59 1778.17 2346.67 1782.27 Q2348.77 1786.34 2352.92 1786.34 Q2357.1 1786.34 2359.18 1782.27 Q2361.28 1778.17 2361.28 1770 Q2361.28 1761.8 2359.18 1757.72 Q2357.1 1753.62 2352.92 1753.62 M2352.92 1749.36 Q2359.61 1749.36 2363.12 1754.66 Q2366.66 1759.93 2366.66 1770 Q2366.66 1780.03 2363.12 1785.33 Q2359.61 1790.6 2352.92 1790.6 Q2346.24 1790.6 2342.7 1785.33 Q2339.19 1780.03 2339.19 1770 Q2339.19 1759.93 2342.7 1754.66 Q2346.24 1749.36 2352.92 1749.36 Z" fill="#000000" fill-rule="evenodd" fill-opacity="1" /><path clip-path="url(#clip680)" d="M 0 0 M2368.02 1726.01 L2385.17 1726.01 L2385.17 1729.69 L2372.02 1729.69 L2372.02 1737.61 Q2372.98 1737.28 2373.93 1737.13 Q2374.88 1736.96 2375.83 1736.96 Q2381.24 1736.96 2384.4 1739.92 Q2387.55 1742.88 2387.55 1747.95 Q2387.55 1753.16 2384.31 1756.06 Q2381.06 1758.93 2375.16 1758.93 Q2373.13 1758.93 2371.01 1758.59 Q2368.91 1758.24 2366.66 1757.55 L2366.66 1753.16 Q2368.61 1754.22 2370.68 1754.74 Q2372.76 1755.26 2375.07 1755.26 Q2378.82 1755.26 2381 1753.29 Q2383.18 1751.32 2383.18 1747.95 Q2383.18 1744.57 2381 1742.6 Q2378.82 1740.63 2375.07 1740.63 Q2373.32 1740.63 2371.57 1741.02 Q2369.84 1741.41 2368.02 1742.24 L2368.02 1726.01 Z" fill="#000000" fill-rule="evenodd" fill-opacity="1" /><path clip-path="url(#clip680)" d="M 0 0 M2392.29 1752.81 L2396.85 1752.81 L2396.85 1758.31 L2392.29 1758.31 L2392.29 1752.81 Z" fill="#000000" fill-rule="evenodd" fill-opacity="1" /><path clip-path="url(#clip680)" d="M 0 0 M2410.93 1728.89 Q2407.56 1728.89 2405.85 1732.22 Q2404.16 1735.53 2404.16 1742.19 Q2404.16 1748.83 2405.85 1752.16 Q2407.56 1755.47 2410.93 1755.47 Q2414.33 1755.47 2416.02 1752.16 Q2417.73 1748.83 2417.73 1742.19 Q2417.73 1735.53 2416.02 1732.22 Q2414.33 1728.89 2410.93 1728.89 M2410.93 1725.43 Q2416.36 1725.43 2419.22 1729.73 Q2422.1 1734.02 2422.1 1742.19 Q2422.1 1750.35 2419.22 1754.65 Q2416.36 1758.93 2410.93 1758.93 Q2405.51 1758.93 2402.63 1754.65 Q2399.77 1750.35 2399.77 1742.19 Q2399.77 1734.02 2402.63 1729.73 Q2405.51 1725.43 2410.93 1725.43 Z" fill="#000000" fill-rule="evenodd" fill-opacity="1" /><polyline clip-path="url(#clip682)" style="stroke:#000000; stroke-width:2.3; stroke-opacity:0.1; fill:none" points="
  241.677,1608.18 2705.67,1608.18 
  "/>
<polyline clip-path="url(#clip682)" style="stroke:#000000; stroke-width:2.3; stroke-opacity:0.1; fill:none" points="
  241.677,1333.49 2705.67,1333.49 
  "/>
<polyline clip-path="url(#clip682)" style="stroke:#000000; stroke-width:2.3; stroke-opacity:0.1; fill:none" points="
  241.677,1058.8 2705.67,1058.8 
  "/>
<polyline clip-path="url(#clip682)" style="stroke:#000000; stroke-width:2.3; stroke-opacity:0.1; fill:none" points="
  241.677,784.117 2705.67,784.117 
  "/>
<polyline clip-path="url(#clip682)" style="stroke:#000000; stroke-width:2.3; stroke-opacity:0.1; fill:none" points="
  241.677,509.43 2705.67,509.43 
  "/>
<polyline clip-path="url(#clip682)" style="stroke:#000000; stroke-width:2.3; stroke-opacity:0.1; fill:none" points="
  241.677,234.742 2705.67,234.742 
  "/>
<polyline clip-path="url(#clip680)" style="stroke:#000000; stroke-width:4.6; stroke-opacity:1; fill:none" points="
  241.677,1695.29 241.677,54.3307 
  "/>
<polyline clip-path="url(#clip680)" style="stroke:#000000; stroke-width:4.6; stroke-opacity:1; fill:none" points="
  241.677,1608.18 271.245,1608.18 
  "/>
<polyline clip-path="url(#clip680)" style="stroke:#000000; stroke-width:4.6; stroke-opacity:1; fill:none" points="
  241.677,1333.49 271.245,1333.49 
  "/>
<polyline clip-path="url(#clip680)" style="stroke:#000000; stroke-width:4.6; stroke-opacity:1; fill:none" points="
  241.677,1058.8 271.245,1058.8 
  "/>
<polyline clip-path="url(#clip680)" style="stroke:#000000; stroke-width:4.6; stroke-opacity:1; fill:none" points="
  241.677,784.117 271.245,784.117 
  "/>
<polyline clip-path="url(#clip680)" style="stroke:#000000; stroke-width:4.6; stroke-opacity:1; fill:none" points="
  241.677,509.43 271.245,509.43 
  "/>
<polyline clip-path="url(#clip680)" style="stroke:#000000; stroke-width:4.6; stroke-opacity:1; fill:none" points="
  241.677,234.742 271.245,234.742 
  "/>
<path clip-path="url(#clip680)" d="M 0 0 M60.343 1630.94 L69.1277 1630.94 L69.1277 1600.62 L59.571 1602.54 L59.571 1597.64 L69.0744 1595.72 L74.4517 1595.72 L74.4517 1630.94 L83.2364 1630.94 L83.2364 1635.47 L60.343 1635.47 L60.343 1630.94 Z" fill="#000000" fill-rule="evenodd" fill-opacity="1" /><path clip-path="url(#clip680)" d="M 0 0 M100.566 1599.26 Q96.4134 1599.26 94.3104 1603.36 Q92.234 1607.43 92.234 1615.63 Q92.234 1623.81 94.3104 1627.91 Q96.4134 1631.98 100.566 1631.98 Q104.746 1631.98 106.822 1627.91 Q108.925 1623.81 108.925 1615.63 Q108.925 1607.43 106.822 1603.36 Q104.746 1599.26 100.566 1599.26 M100.566 1595 Q107.248 1595 110.762 1600.3 Q114.302 1605.57 114.302 1615.63 Q114.302 1625.67 110.762 1630.97 Q107.248 1636.24 100.566 1636.24 Q93.8845 1636.24 90.344 1630.97 Q86.8301 1625.67 86.8301 1615.63 Q86.8301 1605.57 90.344 1600.3 Q93.8845 1595 100.566 1595 Z" fill="#000000" fill-rule="evenodd" fill-opacity="1" /><path clip-path="url(#clip680)" d="M 0 0 M114.302 1588.22 L142.03 1588.22 L142.03 1591.9 L114.302 1591.9 L114.302 1588.22 Z" fill="#000000" fill-rule="evenodd" fill-opacity="1" /><path clip-path="url(#clip680)" d="M 0 0 M160.004 1586.53 Q163.14 1587.2 164.892 1589.32 Q166.666 1591.44 166.666 1594.56 Q166.666 1599.34 163.378 1601.95 Q160.091 1604.57 154.035 1604.57 Q152.001 1604.57 149.839 1604.16 Q147.697 1603.77 145.405 1602.97 L145.405 1598.75 Q147.221 1599.81 149.384 1600.35 Q151.547 1600.89 153.905 1600.89 Q158.014 1600.89 160.156 1599.27 Q162.318 1597.65 162.318 1594.56 Q162.318 1591.7 160.307 1590.1 Q158.317 1588.48 154.748 1588.48 L150.985 1588.48 L150.985 1584.89 L154.921 1584.89 Q158.144 1584.89 159.853 1583.61 Q161.561 1582.31 161.561 1579.89 Q161.561 1577.41 159.788 1576.09 Q158.036 1574.74 154.748 1574.74 Q152.953 1574.74 150.898 1575.13 Q148.844 1575.52 146.378 1576.35 L146.378 1572.45 Q148.865 1571.76 151.028 1571.41 Q153.213 1571.07 155.138 1571.07 Q160.112 1571.07 163.011 1573.34 Q165.909 1575.59 165.909 1579.44 Q165.909 1582.12 164.373 1583.98 Q162.838 1585.82 160.004 1586.53 Z" fill="#000000" fill-rule="evenodd" fill-opacity="1" /><path clip-path="url(#clip680)" d="M 0 0 M171.403 1598.45 L175.966 1598.45 L175.966 1603.94 L171.403 1603.94 L171.403 1598.45 Z" fill="#000000" fill-rule="evenodd" fill-opacity="1" /><path clip-path="url(#clip680)" d="M 0 0 M180.746 1571.65 L197.898 1571.65 L197.898 1575.33 L184.748 1575.33 L184.748 1583.24 Q185.699 1582.92 186.651 1582.77 Q187.603 1582.6 188.554 1582.6 Q193.962 1582.6 197.119 1585.56 Q200.277 1588.52 200.277 1593.58 Q200.277 1598.8 197.033 1601.69 Q193.789 1604.57 187.884 1604.57 Q185.851 1604.57 183.731 1604.23 Q181.633 1603.88 179.384 1603.19 L179.384 1598.8 Q181.33 1599.86 183.407 1600.38 Q185.483 1600.89 187.797 1600.89 Q191.539 1600.89 193.724 1598.93 Q195.908 1596.96 195.908 1593.58 Q195.908 1590.21 193.724 1588.24 Q191.539 1586.27 187.797 1586.27 Q186.045 1586.27 184.293 1586.66 Q182.563 1587.05 180.746 1587.87 L180.746 1571.65 Z" fill="#000000" fill-rule="evenodd" fill-opacity="1" /><path clip-path="url(#clip680)" d="M 0 0 M59.4129 1356.25 L68.1976 1356.25 L68.1976 1325.93 L58.6409 1327.85 L58.6409 1322.95 L68.1444 1321.03 L73.5217 1321.03 L73.5217 1356.25 L82.3063 1356.25 L82.3063 1360.78 L59.4129 1360.78 L59.4129 1356.25 Z" fill="#000000" fill-rule="evenodd" fill-opacity="1" /><path clip-path="url(#clip680)" d="M 0 0 M99.6361 1324.57 Q95.4833 1324.57 93.3803 1328.67 Q91.304 1332.75 91.304 1340.95 Q91.304 1349.12 93.3803 1353.22 Q95.4833 1357.29 99.6361 1357.29 Q103.815 1357.29 105.892 1353.22 Q107.995 1349.12 107.995 1340.95 Q107.995 1332.75 105.892 1328.67 Q103.815 1324.57 99.6361 1324.57 M99.6361 1320.32 Q106.318 1320.32 109.832 1325.61 Q113.372 1330.88 113.372 1340.95 Q113.372 1350.98 109.832 1356.28 Q106.318 1361.55 99.6361 1361.55 Q92.9544 1361.55 89.4139 1356.28 Q85.9001 1350.98 85.9001 1340.95 Q85.9001 1330.88 89.4139 1325.61 Q92.9544 1320.32 99.6361 1320.32 Z" fill="#000000" fill-rule="evenodd" fill-opacity="1" /><path clip-path="url(#clip680)" d="M 0 0 M113.372 1313.53 L141.1 1313.53 L141.1 1317.21 L113.372 1317.21 L113.372 1313.53 Z" fill="#000000" fill-rule="evenodd" fill-opacity="1" /><path clip-path="url(#clip680)" d="M 0 0 M159.074 1311.85 Q162.21 1312.52 163.962 1314.64 Q165.736 1316.75 165.736 1319.87 Q165.736 1324.65 162.448 1327.27 Q159.161 1329.88 153.104 1329.88 Q151.071 1329.88 148.908 1329.47 Q146.767 1329.08 144.475 1328.28 L144.475 1324.07 Q146.291 1325.13 148.454 1325.67 Q150.617 1326.21 152.975 1326.21 Q157.084 1326.21 159.225 1324.58 Q161.388 1322.96 161.388 1319.87 Q161.388 1317.01 159.377 1315.41 Q157.387 1313.79 153.818 1313.79 L150.055 1313.79 L150.055 1310.2 L153.991 1310.2 Q157.214 1310.2 158.923 1308.93 Q160.631 1307.63 160.631 1305.21 Q160.631 1302.72 158.858 1301.4 Q157.106 1300.06 153.818 1300.06 Q152.023 1300.06 149.968 1300.45 Q147.914 1300.84 145.448 1301.66 L145.448 1297.76 Q147.935 1297.07 150.098 1296.73 Q152.283 1296.38 154.208 1296.38 Q159.182 1296.38 162.08 1298.65 Q164.979 1300.9 164.979 1304.75 Q164.979 1307.43 163.443 1309.29 Q161.907 1311.13 159.074 1311.85 Z" fill="#000000" fill-rule="evenodd" fill-opacity="1" /><path clip-path="url(#clip680)" d="M 0 0 M170.473 1323.76 L175.036 1323.76 L175.036 1329.26 L170.473 1329.26 L170.473 1323.76 Z" fill="#000000" fill-rule="evenodd" fill-opacity="1" /><path clip-path="url(#clip680)" d="M 0 0 M189.117 1299.84 Q185.743 1299.84 184.034 1303.17 Q182.347 1306.48 182.347 1313.14 Q182.347 1319.78 184.034 1323.11 Q185.743 1326.42 189.117 1326.42 Q192.512 1326.42 194.199 1323.11 Q195.908 1319.78 195.908 1313.14 Q195.908 1306.48 194.199 1303.17 Q192.512 1299.84 189.117 1299.84 M189.117 1296.38 Q194.546 1296.38 197.401 1300.68 Q200.277 1304.97 200.277 1313.14 Q200.277 1321.3 197.401 1325.6 Q194.546 1329.88 189.117 1329.88 Q183.688 1329.88 180.811 1325.6 Q177.956 1321.3 177.956 1313.14 Q177.956 1304.97 180.811 1300.68 Q183.688 1296.38 189.117 1296.38 Z" fill="#000000" fill-rule="evenodd" fill-opacity="1" /><path clip-path="url(#clip680)" d="M 0 0 M61.2298 1081.57 L70.0144 1081.57 L70.0144 1051.25 L60.4578 1053.16 L60.4578 1048.26 L69.9612 1046.35 L75.3385 1046.35 L75.3385 1081.57 L84.1232 1081.57 L84.1232 1086.09 L61.2298 1086.09 L61.2298 1081.57 Z" fill="#000000" fill-rule="evenodd" fill-opacity="1" /><path clip-path="url(#clip680)" d="M 0 0 M101.453 1049.89 Q97.3002 1049.89 95.1972 1053.99 Q93.1208 1058.06 93.1208 1066.26 Q93.1208 1074.43 95.1972 1078.53 Q97.3002 1082.6 101.453 1082.6 Q105.632 1082.6 107.709 1078.53 Q109.812 1074.43 109.812 1066.26 Q109.812 1058.06 107.709 1053.99 Q105.632 1049.89 101.453 1049.89 M101.453 1045.63 Q108.135 1045.63 111.648 1050.93 Q115.189 1056.2 115.189 1066.26 Q115.189 1076.29 111.648 1081.59 Q108.135 1086.86 101.453 1086.86 Q94.7712 1086.86 91.2308 1081.59 Q87.7169 1076.29 87.7169 1066.26 Q87.7169 1056.2 91.2308 1050.93 Q94.7712 1045.63 101.453 1045.63 Z" fill="#000000" fill-rule="evenodd" fill-opacity="1" /><path clip-path="url(#clip680)" d="M 0 0 M115.189 1038.84 L142.917 1038.84 L142.917 1042.52 L115.189 1042.52 L115.189 1038.84 Z" fill="#000000" fill-rule="evenodd" fill-opacity="1" /><path clip-path="url(#clip680)" d="M 0 0 M151.417 1050.89 L166.666 1050.89 L166.666 1054.57 L146.162 1054.57 L146.162 1050.89 Q148.649 1048.32 152.931 1043.99 Q157.236 1039.65 158.339 1038.39 Q160.437 1036.03 161.259 1034.41 Q162.102 1032.77 162.102 1031.19 Q162.102 1028.61 160.285 1026.99 Q158.49 1025.37 155.592 1025.37 Q153.537 1025.37 151.244 1026.08 Q148.973 1026.8 146.378 1028.25 L146.378 1023.83 Q149.017 1022.77 151.309 1022.23 Q153.602 1021.69 155.505 1021.69 Q160.523 1021.69 163.508 1024.2 Q166.493 1026.71 166.493 1030.91 Q166.493 1032.9 165.736 1034.69 Q165 1036.47 163.032 1038.89 Q162.491 1039.52 159.593 1042.52 Q156.695 1045.51 151.417 1050.89 Z" fill="#000000" fill-rule="evenodd" fill-opacity="1" /><path clip-path="url(#clip680)" d="M 0 0 M171.403 1049.08 L175.966 1049.08 L175.966 1054.57 L171.403 1054.57 L171.403 1049.08 Z" fill="#000000" fill-rule="evenodd" fill-opacity="1" /><path clip-path="url(#clip680)" d="M 0 0 M180.746 1022.28 L197.898 1022.28 L197.898 1025.95 L184.748 1025.95 L184.748 1033.87 Q185.699 1033.55 186.651 1033.39 Q187.603 1033.22 188.554 1033.22 Q193.962 1033.22 197.119 1036.18 Q200.277 1039.15 200.277 1044.21 Q200.277 1049.42 197.033 1052.32 Q193.789 1055.2 187.884 1055.2 Q185.851 1055.2 183.731 1054.85 Q181.633 1054.5 179.384 1053.81 L179.384 1049.42 Q181.33 1050.48 183.407 1051 Q185.483 1051.52 187.797 1051.52 Q191.539 1051.52 193.724 1049.55 Q195.908 1047.58 195.908 1044.21 Q195.908 1040.83 193.724 1038.87 Q191.539 1036.9 187.797 1036.9 Q186.045 1036.9 184.293 1037.29 Q182.563 1037.68 180.746 1038.5 L180.746 1022.28 Z" fill="#000000" fill-rule="evenodd" fill-opacity="1" /><path clip-path="url(#clip680)" d="M 0 0 M60.2997 806.878 L69.0844 806.878 L69.0844 776.558 L59.5277 778.474 L59.5277 773.576 L69.0312 771.66 L74.4084 771.66 L74.4084 806.878 L83.1931 806.878 L83.1931 811.404 L60.2997 811.404 L60.2997 806.878 Z" fill="#000000" fill-rule="evenodd" fill-opacity="1" /><path clip-path="url(#clip680)" d="M 0 0 M100.523 775.2 Q96.3701 775.2 94.2671 779.3 Q92.1908 783.373 92.1908 791.572 Q92.1908 799.744 94.2671 803.844 Q96.3701 807.916 100.523 807.916 Q104.702 807.916 106.779 803.844 Q108.882 799.744 108.882 791.572 Q108.882 783.373 106.779 779.3 Q104.702 775.2 100.523 775.2 M100.523 770.941 Q107.205 770.941 110.718 776.238 Q114.259 781.509 114.259 791.572 Q114.259 801.607 110.718 806.905 Q107.205 812.176 100.523 812.176 Q93.8412 812.176 90.3007 806.905 Q86.7868 801.607 86.7868 791.572 Q86.7868 781.509 90.3007 776.238 Q93.8412 770.941 100.523 770.941 Z" fill="#000000" fill-rule="evenodd" fill-opacity="1" /><path clip-path="url(#clip680)" d="M 0 0 M114.259 764.157 L141.987 764.157 L141.987 767.834 L114.259 767.834 L114.259 764.157 Z" fill="#000000" fill-rule="evenodd" fill-opacity="1" /><path clip-path="url(#clip680)" d="M 0 0 M150.487 776.205 L165.736 776.205 L165.736 779.882 L145.232 779.882 L145.232 776.205 Q147.719 773.631 152.001 769.305 Q156.306 764.958 157.409 763.703 Q159.507 761.346 160.329 759.724 Q161.172 758.08 161.172 756.501 Q161.172 753.927 159.355 752.305 Q157.56 750.683 154.662 750.683 Q152.607 750.683 150.314 751.396 Q148.043 752.11 145.448 753.559 L145.448 749.147 Q148.087 748.087 150.379 747.546 Q152.672 747.006 154.575 747.006 Q159.593 747.006 162.578 749.515 Q165.563 752.024 165.563 756.22 Q165.563 758.209 164.806 760.005 Q164.07 761.778 162.102 764.201 Q161.561 764.828 158.663 767.834 Q155.765 770.819 150.487 776.205 Z" fill="#000000" fill-rule="evenodd" fill-opacity="1" /><path clip-path="url(#clip680)" d="M 0 0 M170.473 774.388 L175.036 774.388 L175.036 779.882 L170.473 779.882 L170.473 774.388 Z" fill="#000000" fill-rule="evenodd" fill-opacity="1" /><path clip-path="url(#clip680)" d="M 0 0 M189.117 750.466 Q185.743 750.466 184.034 753.797 Q182.347 757.106 182.347 763.768 Q182.347 770.408 184.034 773.739 Q185.743 777.048 189.117 777.048 Q192.512 777.048 194.199 773.739 Q195.908 770.408 195.908 763.768 Q195.908 757.106 194.199 753.797 Q192.512 750.466 189.117 750.466 M189.117 747.006 Q194.546 747.006 197.401 751.31 Q200.277 755.592 200.277 763.768 Q200.277 771.922 197.401 776.226 Q194.546 780.509 189.117 780.509 Q183.688 780.509 180.811 776.226 Q177.956 771.922 177.956 763.768 Q177.956 755.592 180.811 751.31 Q183.688 747.006 189.117 747.006 Z" fill="#000000" fill-rule="evenodd" fill-opacity="1" /><path clip-path="url(#clip680)" d="M 0 0 M60.8837 532.191 L69.6684 532.191 L69.6684 501.87 L60.1117 503.787 L60.1117 498.889 L69.6151 496.972 L74.9924 496.972 L74.9924 532.191 L83.7771 532.191 L83.7771 536.716 L60.8837 536.716 L60.8837 532.191 Z" fill="#000000" fill-rule="evenodd" fill-opacity="1" /><path clip-path="url(#clip680)" d="M 0 0 M101.107 500.513 Q96.9541 500.513 94.8511 504.612 Q92.7747 508.685 92.7747 516.884 Q92.7747 525.057 94.8511 529.156 Q96.9541 533.229 101.107 533.229 Q105.286 533.229 107.363 529.156 Q109.466 525.057 109.466 516.884 Q109.466 508.685 107.363 504.612 Q105.286 500.513 101.107 500.513 M101.107 496.254 Q107.789 496.254 111.302 501.551 Q114.843 506.822 114.843 516.884 Q114.843 526.92 111.302 532.217 Q107.789 537.488 101.107 537.488 Q94.4252 537.488 90.8847 532.217 Q87.3708 526.92 87.3708 516.884 Q87.3708 506.822 90.8847 501.551 Q94.4252 496.254 101.107 496.254 Z" fill="#000000" fill-rule="evenodd" fill-opacity="1" /><path clip-path="url(#clip680)" d="M 0 0 M114.843 489.47 L142.571 489.47 L142.571 493.147 L114.843 493.147 L114.843 489.47 Z" fill="#000000" fill-rule="evenodd" fill-opacity="1" /><path clip-path="url(#clip680)" d="M 0 0 M148.065 501.517 L155.202 501.517 L155.202 476.882 L147.438 478.439 L147.438 474.46 L155.159 472.902 L159.528 472.902 L159.528 501.517 L166.666 501.517 L166.666 505.194 L148.065 505.194 L148.065 501.517 Z" fill="#000000" fill-rule="evenodd" fill-opacity="1" /><path clip-path="url(#clip680)" d="M 0 0 M171.403 499.701 L175.966 499.701 L175.966 505.194 L171.403 505.194 L171.403 499.701 Z" fill="#000000" fill-rule="evenodd" fill-opacity="1" /><path clip-path="url(#clip680)" d="M 0 0 M180.746 472.902 L197.898 472.902 L197.898 476.579 L184.748 476.579 L184.748 484.495 Q185.699 484.171 186.651 484.02 Q187.603 483.847 188.554 483.847 Q193.962 483.847 197.119 486.81 Q200.277 489.773 200.277 494.834 Q200.277 500.047 197.033 502.945 Q193.789 505.822 187.884 505.822 Q185.851 505.822 183.731 505.475 Q181.633 505.129 179.384 504.437 L179.384 500.047 Q181.33 501.106 183.407 501.626 Q185.483 502.145 187.797 502.145 Q191.539 502.145 193.724 500.176 Q195.908 498.208 195.908 494.834 Q195.908 491.46 193.724 489.492 Q191.539 487.523 187.797 487.523 Q186.045 487.523 184.293 487.913 Q182.563 488.302 180.746 489.124 L180.746 472.902 Z" fill="#000000" fill-rule="evenodd" fill-opacity="1" /><path clip-path="url(#clip680)" d="M 0 0 M59.9537 257.503 L68.7383 257.503 L68.7383 227.183 L59.1817 229.1 L59.1817 224.202 L68.6851 222.285 L74.0624 222.285 L74.0624 257.503 L82.8471 257.503 L82.8471 262.029 L59.9537 262.029 L59.9537 257.503 Z" fill="#000000" fill-rule="evenodd" fill-opacity="1" /><path clip-path="url(#clip680)" d="M 0 0 M100.177 225.825 Q96.0241 225.825 93.9211 229.925 Q91.8447 233.998 91.8447 242.197 Q91.8447 250.369 93.9211 254.469 Q96.0241 258.542 100.177 258.542 Q104.356 258.542 106.433 254.469 Q108.536 250.369 108.536 242.197 Q108.536 233.998 106.433 229.925 Q104.356 225.825 100.177 225.825 M100.177 221.566 Q106.858 221.566 110.372 226.864 Q113.913 232.134 113.913 242.197 Q113.913 252.233 110.372 257.53 Q106.858 262.801 100.177 262.801 Q93.4951 262.801 89.9547 257.53 Q86.4408 252.233 86.4408 242.197 Q86.4408 232.134 89.9547 226.864 Q93.4951 221.566 100.177 221.566 Z" fill="#000000" fill-rule="evenodd" fill-opacity="1" /><path clip-path="url(#clip680)" d="M 0 0 M113.913 214.783 L141.641 214.783 L141.641 218.46 L113.913 218.46 L113.913 214.783 Z" fill="#000000" fill-rule="evenodd" fill-opacity="1" /><path clip-path="url(#clip680)" d="M 0 0 M147.135 226.83 L154.272 226.83 L154.272 202.195 L146.508 203.752 L146.508 199.772 L154.229 198.215 L158.598 198.215 L158.598 226.83 L165.736 226.83 L165.736 230.507 L147.135 230.507 L147.135 226.83 Z" fill="#000000" fill-rule="evenodd" fill-opacity="1" /><path clip-path="url(#clip680)" d="M 0 0 M170.473 225.013 L175.036 225.013 L175.036 230.507 L170.473 230.507 L170.473 225.013 Z" fill="#000000" fill-rule="evenodd" fill-opacity="1" /><path clip-path="url(#clip680)" d="M 0 0 M189.117 201.092 Q185.743 201.092 184.034 204.422 Q182.347 207.732 182.347 214.393 Q182.347 221.033 184.034 224.364 Q185.743 227.674 189.117 227.674 Q192.512 227.674 194.199 224.364 Q195.908 221.033 195.908 214.393 Q195.908 207.732 194.199 204.422 Q192.512 201.092 189.117 201.092 M189.117 197.631 Q194.546 197.631 197.401 201.935 Q200.277 206.218 200.277 214.393 Q200.277 222.547 197.401 226.852 Q194.546 231.134 189.117 231.134 Q183.688 231.134 180.811 226.852 Q177.956 222.547 177.956 214.393 Q177.956 206.218 180.811 201.935 Q183.688 197.631 189.117 197.631 Z" fill="#000000" fill-rule="evenodd" fill-opacity="1" /><polyline clip-path="url(#clip682)" style="stroke:#009af9; stroke-width:4.6; stroke-opacity:1; fill:none" points="
  311.413,1648.85 580.335,1501.39 849.256,1432.77 1204.75,1231.27 1362.06,1214.16 1473.67,1188.34 1575.46,976.33 1679.54,957.313 1742.59,944.421 2011.52,859.24 
  2098.09,637.748 2367.01,538.233 2635.93,297.841 
  "/>
<polyline clip-path="url(#clip682)" style="stroke:#e26f46; stroke-width:4.6; stroke-opacity:1; fill:none" points="
  311.413,1238.19 580.335,1274.86 849.256,1269.99 1204.75,1188.66 1362.06,1154.77 1473.67,983.009 1575.46,950.297 1679.54,894.399 1742.59,854.898 2011.52,713.429 
  2098.09,701.177 2367.01,380.048 2635.93,100.773 
  "/>
<path clip-path="url(#clip680)" d="
M2252.7 317.685 L2623.54 317.685 L2623.54 109.029 L2252.7 109.029  Z
  " fill="#ffffff" fill-rule="evenodd" fill-opacity="1"/>
<polyline clip-path="url(#clip680)" style="stroke:#000000; stroke-width:4.6; stroke-opacity:1; fill:none" points="
  2252.7,317.685 2623.54,317.685 2623.54,109.029 2252.7,109.029 2252.7,317.685 
  "/>
<polyline clip-path="url(#clip680)" style="stroke:#009af9; stroke-width:4.6; stroke-opacity:1; fill:none" points="
  2280.08,178.581 2444.35,178.581 
  "/>
<path clip-path="url(#clip680)" d="M 0 0 M2493.47 173.164 L2493.47 157.032 L2498.37 157.032 L2498.37 198.453 L2493.47 198.453 L2493.47 193.981 Q2491.93 196.643 2489.56 197.948 Q2487.22 199.225 2483.92 199.225 Q2478.51 199.225 2475.1 194.913 Q2471.72 190.6 2471.72 183.573 Q2471.72 176.545 2475.1 172.232 Q2478.51 167.92 2483.92 167.92 Q2487.22 167.92 2489.56 169.224 Q2491.93 170.502 2493.47 173.164 M2476.78 183.573 Q2476.78 188.977 2478.99 192.064 Q2481.23 195.126 2485.11 195.126 Q2489 195.126 2491.24 192.064 Q2493.47 188.977 2493.47 183.573 Q2493.47 178.169 2491.24 175.107 Q2489 172.019 2485.11 172.019 Q2481.23 172.019 2478.99 175.107 Q2476.78 178.169 2476.78 183.573 Z" fill="#000000" fill-rule="evenodd" fill-opacity="1" /><path clip-path="url(#clip680)" d="M 0 0 M2503.51 168.639 L2508.41 168.639 L2508.41 198.453 L2503.51 198.453 L2503.51 168.639 M2503.51 157.032 L2508.41 157.032 L2508.41 163.235 L2503.51 163.235 L2503.51 157.032 Z" fill="#000000" fill-rule="evenodd" fill-opacity="1" /><path clip-path="url(#clip680)" d="M 0 0 M2535 169.783 L2535 174.362 Q2532.92 173.217 2530.82 172.658 Q2528.74 172.073 2526.61 172.073 Q2521.85 172.073 2519.21 175.107 Q2516.58 178.115 2516.58 183.573 Q2516.58 189.03 2519.21 192.064 Q2521.85 195.073 2526.61 195.073 Q2528.74 195.073 2530.82 194.514 Q2532.92 193.928 2535 192.783 L2535 197.309 Q2532.95 198.267 2530.74 198.746 Q2528.56 199.225 2526.08 199.225 Q2519.35 199.225 2515.38 194.993 Q2511.41 190.76 2511.41 183.573 Q2511.41 176.279 2515.41 172.099 Q2519.43 167.92 2526.4 167.92 Q2528.66 167.92 2530.82 168.399 Q2532.98 168.852 2535 169.783 Z" fill="#000000" fill-rule="evenodd" fill-opacity="1" /><path clip-path="url(#clip680)" d="M 0 0 M2544.98 160.173 L2544.98 168.639 L2555.07 168.639 L2555.07 172.445 L2544.98 172.445 L2544.98 188.63 Q2544.98 192.277 2545.97 193.316 Q2546.98 194.354 2550.04 194.354 L2555.07 194.354 L2555.07 198.453 L2550.04 198.453 Q2544.37 198.453 2542.21 196.35 Q2540.06 194.221 2540.06 188.63 L2540.06 172.445 L2536.46 172.445 L2536.46 168.639 L2540.06 168.639 L2540.06 160.173 L2544.98 160.173 Z" fill="#000000" fill-rule="evenodd" fill-opacity="1" /><polyline clip-path="url(#clip680)" style="stroke:#e26f46; stroke-width:4.6; stroke-opacity:1; fill:none" points="
  2280.08,248.133 2444.35,248.133 
  "/>
<path clip-path="url(#clip680)" d="M 0 0 M2471.72 228.261 L2477.1 228.261 L2477.1 263.48 L2496.45 263.48 L2496.45 268.005 L2471.72 268.005 L2471.72 228.261 Z" fill="#000000" fill-rule="evenodd" fill-opacity="1" /><path clip-path="url(#clip680)" d="M 0 0 M2501.8 228.261 L2509.05 228.261 L2526.67 261.51 L2526.67 228.261 L2531.89 228.261 L2531.89 268.005 L2524.64 268.005 L2507.02 234.757 L2507.02 268.005 L2501.8 268.005 L2501.8 228.261 Z" fill="#000000" fill-rule="evenodd" fill-opacity="1" /><path clip-path="url(#clip680)" d="M 0 0 M2537.24 228.261 L2542.61 228.261 L2542.61 245.059 L2560.45 228.261 L2567.37 228.261 L2547.64 246.789 L2568.78 268.005 L2561.7 268.005 L2542.61 248.865 L2542.61 268.005 L2537.24 268.005 L2537.24 228.261 Z" fill="#000000" fill-rule="evenodd" fill-opacity="1" /></svg>
