<?xml version="1.0" encoding="utf-8"?>
<svg xmlns="http://www.w3.org/2000/svg" xmlns:xlink="http://www.w3.org/1999/xlink" width="690" height="460" viewBox="0 0 2760 1840">
<defs>
  <clipPath id="clip900">
    <rect x="0" y="0" width="2760" height="1840"/>
  </clipPath>
</defs>
<path clip-path="url(#clip900)" d="
M0 1840 L2760 1840 L2760 0 L0 0  Z
  " fill="#ffffff" fill-rule="evenodd" fill-opacity="1"/>
<defs>
  <clipPath id="clip901">
    <rect x="552" y="0" width="1933" height="1840"/>
  </clipPath>
</defs>
<path clip-path="url(#clip900)" d="
M241.353 1695.29 L2705.67 1695.29 L2705.67 54.3307 L241.353 54.3307  Z
  " fill="#ffffff" fill-rule="evenodd" fill-opacity="1"/>
<defs>
  <clipPath id="clip902">
    <rect x="241" y="54" width="2465" height="1642"/>
  </clipPath>
</defs>
<polyline clip-path="url(#clip902)" style="stroke:#000000; stroke-width:2.3; stroke-opacity:0.1; fill:none" points="
  615.241,1695.29 615.241,54.3307 
  "/>
<polyline clip-path="url(#clip902)" style="stroke:#000000; stroke-width:2.3; stroke-opacity:0.1; fill:none" points="
  1120.41,1695.29 1120.41,54.3307 
  "/>
<polyline clip-path="url(#clip902)" style="stroke:#000000; stroke-width:2.3; stroke-opacity:0.1; fill:none" points="
  1625.58,1695.29 1625.58,54.3307 
  "/>
<polyline clip-path="url(#clip902)" style="stroke:#000000; stroke-width:2.3; stroke-opacity:0.1; fill:none" points="
  2130.75,1695.29 2130.75,54.3307 
  "/>
<polyline clip-path="url(#clip902)" style="stroke:#000000; stroke-width:2.3; stroke-opacity:0.1; fill:none" points="
  2635.92,1695.29 2635.92,54.3307 
  "/>
<polyline clip-path="url(#clip900)" style="stroke:#000000; stroke-width:4.6; stroke-opacity:1; fill:none" points="
  241.353,1695.29 2705.67,1695.29 
  "/>
<polyline clip-path="url(#clip900)" style="stroke:#000000; stroke-width:4.6; stroke-opacity:1; fill:none" points="
  615.241,1695.29 615.241,1675.6 
  "/>
<polyline clip-path="url(#clip900)" style="stroke:#000000; stroke-width:4.6; stroke-opacity:1; fill:none" points="
  1120.41,1695.29 1120.41,1675.6 
  "/>
<polyline clip-path="url(#clip900)" style="stroke:#000000; stroke-width:4.6; stroke-opacity:1; fill:none" points="
  1625.58,1695.29 1625.58,1675.6 
  "/>
<polyline clip-path="url(#clip900)" style="stroke:#000000; stroke-width:4.6; stroke-opacity:1; fill:none" points="
  2130.75,1695.29 2130.75,1675.6 
  "/>
<polyline clip-path="url(#clip900)" style="stroke:#000000; stroke-width:4.6; stroke-opacity:1; fill:none" points="
  2635.92,1695.29 2635.92,1675.6 
  "/>
<path clip-path="url(#clip900)" d="M 0 0 M559.61 1785.3 L568.395 1785.3 L568.395 1754.98 L558.838 1756.9 L558.838 1752 L568.342 1750.08 L573.719 1750.08 L573.719 1785.3 L582.504 1785.3 L582.504 1789.83 L559.61 1789.83 L559.61 1785.3 Z" fill="#000000" fill-rule="evenodd" fill-opacity="1" /><path clip-path="url(#clip900)" d="M 0 0 M599.833 1753.62 Q595.681 1753.62 593.578 1757.72 Q591.501 1761.8 591.501 1770 Q591.501 1778.17 593.578 1782.27 Q595.681 1786.34 599.833 1786.34 Q604.013 1786.34 606.089 1782.27 Q608.192 1778.17 608.192 1770 Q608.192 1761.8 606.089 1757.72 Q604.013 1753.62 599.833 1753.62 M599.833 1749.36 Q606.515 1749.36 610.029 1754.66 Q613.57 1759.93 613.57 1770 Q613.57 1780.03 610.029 1785.33 Q606.515 1790.6 599.833 1790.6 Q593.152 1790.6 589.611 1785.33 Q586.097 1780.03 586.097 1770 Q586.097 1759.93 589.611 1754.66 Q593.152 1749.36 599.833 1749.36 Z" fill="#000000" fill-rule="evenodd" fill-opacity="1" /><path clip-path="url(#clip900)" d="M 0 0 M628.147 1729.82 L617.117 1747.06 L628.147 1747.06 L628.147 1729.82 M627.001 1726.01 L632.495 1726.01 L632.495 1747.06 L637.102 1747.06 L637.102 1750.69 L632.495 1750.69 L632.495 1758.31 L628.147 1758.31 L628.147 1750.69 L613.57 1750.69 L613.57 1746.47 L627.001 1726.01 Z" fill="#000000" fill-rule="evenodd" fill-opacity="1" /><path clip-path="url(#clip900)" d="M 0 0 M641.839 1752.81 L646.402 1752.81 L646.402 1758.31 L641.839 1758.31 L641.839 1752.81 Z" fill="#000000" fill-rule="evenodd" fill-opacity="1" /><path clip-path="url(#clip900)" d="M 0 0 M660.483 1728.89 Q657.109 1728.89 655.4 1732.22 Q653.713 1735.53 653.713 1742.19 Q653.713 1748.83 655.4 1752.16 Q657.109 1755.47 660.483 1755.47 Q663.878 1755.47 665.565 1752.16 Q667.274 1748.83 667.274 1742.19 Q667.274 1735.53 665.565 1732.22 Q663.878 1728.89 660.483 1728.89 M660.483 1725.43 Q665.912 1725.43 668.767 1729.73 Q671.643 1734.02 671.643 1742.19 Q671.643 1750.35 668.767 1754.65 Q665.912 1758.93 660.483 1758.93 Q655.054 1758.93 652.177 1754.65 Q649.322 1750.35 649.322 1742.19 Q649.322 1734.02 652.177 1729.73 Q655.054 1725.43 660.483 1725.43 Z" fill="#000000" fill-rule="evenodd" fill-opacity="1" /><path clip-path="url(#clip900)" d="M 0 0 M1065.25 1785.3 L1074.03 1785.3 L1074.03 1754.98 L1064.47 1756.9 L1064.47 1752 L1073.98 1750.08 L1079.35 1750.08 L1079.35 1785.3 L1088.14 1785.3 L1088.14 1789.83 L1065.25 1789.83 L1065.25 1785.3 Z" fill="#000000" fill-rule="evenodd" fill-opacity="1" /><path clip-path="url(#clip900)" d="M 0 0 M1105.47 1753.62 Q1101.32 1753.62 1099.21 1757.72 Q1097.14 1761.8 1097.14 1770 Q1097.14 1778.17 1099.21 1782.27 Q1101.32 1786.34 1105.47 1786.34 Q1109.65 1786.34 1111.73 1782.27 Q1113.83 1778.17 1113.83 1770 Q1113.83 1761.8 1111.73 1757.72 Q1109.65 1753.62 1105.47 1753.62 M1105.47 1749.36 Q1112.15 1749.36 1115.66 1754.66 Q1119.21 1759.93 1119.21 1770 Q1119.21 1780.03 1115.66 1785.33 Q1112.15 1790.6 1105.47 1790.6 Q1098.79 1790.6 1095.25 1785.33 Q1091.73 1780.03 1091.73 1770 Q1091.73 1759.93 1095.25 1754.66 Q1098.79 1749.36 1105.47 1749.36 Z" fill="#000000" fill-rule="evenodd" fill-opacity="1" /><path clip-path="url(#clip900)" d="M 0 0 M1133.78 1729.82 L1122.75 1747.06 L1133.78 1747.06 L1133.78 1729.82 M1132.64 1726.01 L1138.13 1726.01 L1138.13 1747.06 L1142.74 1747.06 L1142.74 1750.69 L1138.13 1750.69 L1138.13 1758.31 L1133.78 1758.31 L1133.78 1750.69 L1119.21 1750.69 L1119.21 1746.47 L1132.64 1726.01 Z" fill="#000000" fill-rule="evenodd" fill-opacity="1" /><path clip-path="url(#clip900)" d="M 0 0 M1147.47 1752.81 L1152.04 1752.81 L1152.04 1758.31 L1147.47 1758.31 L1147.47 1752.81 Z" fill="#000000" fill-rule="evenodd" fill-opacity="1" /><path clip-path="url(#clip900)" d="M 0 0 M1156.82 1726.01 L1173.97 1726.01 L1173.97 1729.69 L1160.82 1729.69 L1160.82 1737.61 Q1161.77 1737.28 1162.72 1737.13 Q1163.67 1736.96 1164.63 1736.96 Q1170.03 1736.96 1173.19 1739.92 Q1176.35 1742.88 1176.35 1747.95 Q1176.35 1753.16 1173.1 1756.06 Q1169.86 1758.93 1163.96 1758.93 Q1161.92 1758.93 1159.8 1758.59 Q1157.7 1758.24 1155.46 1757.55 L1155.46 1753.16 Q1157.4 1754.22 1159.48 1754.74 Q1161.55 1755.26 1163.87 1755.26 Q1167.61 1755.26 1169.8 1753.29 Q1171.98 1751.32 1171.98 1747.95 Q1171.98 1744.57 1169.8 1742.6 Q1167.61 1740.63 1163.87 1740.63 Q1162.12 1740.63 1160.37 1741.02 Q1158.64 1741.41 1156.82 1742.24 L1156.82 1726.01 Z" fill="#000000" fill-rule="evenodd" fill-opacity="1" /><path clip-path="url(#clip900)" d="M 0 0 M1571.27 1785.3 L1580.06 1785.3 L1580.06 1754.98 L1570.5 1756.9 L1570.5 1752 L1580 1750.08 L1585.38 1750.08 L1585.38 1785.3 L1594.16 1785.3 L1594.16 1789.83 L1571.27 1789.83 L1571.27 1785.3 Z" fill="#000000" fill-rule="evenodd" fill-opacity="1" /><path clip-path="url(#clip900)" d="M 0 0 M1611.49 1753.62 Q1607.34 1753.62 1605.24 1757.72 Q1603.16 1761.8 1603.16 1770 Q1603.16 1778.17 1605.24 1782.27 Q1607.34 1786.34 1611.49 1786.34 Q1615.67 1786.34 1617.75 1782.27 Q1619.85 1778.17 1619.85 1770 Q1619.85 1761.8 1617.75 1757.72 Q1615.67 1753.62 1611.49 1753.62 M1611.49 1749.36 Q1618.18 1749.36 1621.69 1754.66 Q1625.23 1759.93 1625.23 1770 Q1625.23 1780.03 1621.69 1785.33 Q1618.18 1790.6 1611.49 1790.6 Q1604.81 1790.6 1601.27 1785.33 Q1597.76 1780.03 1597.76 1770 Q1597.76 1759.93 1601.27 1754.66 Q1604.81 1749.36 1611.49 1749.36 Z" fill="#000000" fill-rule="evenodd" fill-opacity="1" /><path clip-path="url(#clip900)" d="M 0 0 M1626.59 1726.01 L1643.75 1726.01 L1643.75 1729.69 L1630.59 1729.69 L1630.59 1737.61 Q1631.55 1737.28 1632.5 1737.13 Q1633.45 1736.96 1634.4 1736.96 Q1639.81 1736.96 1642.97 1739.92 Q1646.12 1742.88 1646.12 1747.95 Q1646.12 1753.16 1642.88 1756.06 Q1639.64 1758.93 1633.73 1758.93 Q1631.7 1758.93 1629.58 1758.59 Q1627.48 1758.24 1625.23 1757.55 L1625.23 1753.16 Q1627.18 1754.22 1629.25 1754.74 Q1631.33 1755.26 1633.64 1755.26 Q1637.39 1755.26 1639.57 1753.29 Q1641.76 1751.32 1641.76 1747.95 Q1641.76 1744.57 1639.57 1742.6 Q1637.39 1740.63 1633.64 1740.63 Q1631.89 1740.63 1630.14 1741.02 Q1628.41 1741.41 1626.59 1742.24 L1626.59 1726.01 Z" fill="#000000" fill-rule="evenodd" fill-opacity="1" /><path clip-path="url(#clip900)" d="M 0 0 M1650.86 1752.81 L1655.42 1752.81 L1655.42 1758.31 L1650.86 1758.31 L1650.86 1752.81 Z" fill="#000000" fill-rule="evenodd" fill-opacity="1" /><path clip-path="url(#clip900)" d="M 0 0 M1669.51 1728.89 Q1666.13 1728.89 1664.42 1732.22 Q1662.74 1735.53 1662.74 1742.19 Q1662.74 1748.83 1664.42 1752.16 Q1666.13 1755.47 1669.51 1755.47 Q1672.9 1755.47 1674.59 1752.16 Q1676.3 1748.83 1676.3 1742.19 Q1676.3 1735.53 1674.59 1732.22 Q1672.9 1728.89 1669.51 1728.89 M1669.51 1725.43 Q1674.93 1725.43 1677.79 1729.73 Q1680.67 1734.02 1680.67 1742.19 Q1680.67 1750.35 1677.79 1754.65 Q1674.93 1758.93 1669.51 1758.93 Q1664.08 1758.93 1661.2 1754.65 Q1658.34 1750.35 1658.34 1742.19 Q1658.34 1734.02 1661.2 1729.73 Q1664.08 1725.43 1669.51 1725.43 Z" fill="#000000" fill-rule="evenodd" fill-opacity="1" /><path clip-path="url(#clip900)" d="M 0 0 M2076.91 1785.3 L2085.69 1785.3 L2085.69 1754.98 L2076.14 1756.9 L2076.14 1752 L2085.64 1750.08 L2091.02 1750.08 L2091.02 1785.3 L2099.8 1785.3 L2099.8 1789.83 L2076.91 1789.83 L2076.91 1785.3 Z" fill="#000000" fill-rule="evenodd" fill-opacity="1" /><path clip-path="url(#clip900)" d="M 0 0 M2117.13 1753.62 Q2112.98 1753.62 2110.87 1757.72 Q2108.8 1761.8 2108.8 1770 Q2108.8 1778.17 2110.87 1782.27 Q2112.98 1786.34 2117.13 1786.34 Q2121.31 1786.34 2123.39 1782.27 Q2125.49 1778.17 2125.49 1770 Q2125.49 1761.8 2123.39 1757.72 Q2121.31 1753.62 2117.13 1753.62 M2117.13 1749.36 Q2123.81 1749.36 2127.33 1754.66 Q2130.87 1759.93 2130.87 1770 Q2130.87 1780.03 2127.33 1785.33 Q2123.81 1790.6 2117.13 1790.6 Q2110.45 1790.6 2106.91 1785.33 Q2103.39 1780.03 2103.39 1770 Q2103.39 1759.93 2106.91 1754.66 Q2110.45 1749.36 2117.13 1749.36 Z" fill="#000000" fill-rule="evenodd" fill-opacity="1" /><path clip-path="url(#clip900)" d="M 0 0 M2132.23 1726.01 L2149.38 1726.01 L2149.38 1729.69 L2136.23 1729.69 L2136.23 1737.61 Q2137.18 1737.28 2138.13 1737.13 Q2139.09 1736.96 2140.04 1736.96 Q2145.44 1736.96 2148.6 1739.92 Q2151.76 1742.88 2151.76 1747.95 Q2151.76 1753.16 2148.52 1756.06 Q2145.27 1758.93 2139.37 1758.93 Q2137.33 1758.93 2135.21 1758.59 Q2133.12 1758.24 2130.87 1757.55 L2130.87 1753.16 Q2132.81 1754.22 2134.89 1754.74 Q2136.97 1755.26 2139.28 1755.26 Q2143.02 1755.26 2145.21 1753.29 Q2147.39 1751.32 2147.39 1747.95 Q2147.39 1744.57 2145.21 1742.6 Q2143.02 1740.63 2139.28 1740.63 Q2137.53 1740.63 2135.78 1741.02 Q2134.05 1741.41 2132.23 1742.24 L2132.23 1726.01 Z" fill="#000000" fill-rule="evenodd" fill-opacity="1" /><path clip-path="url(#clip900)" d="M 0 0 M2156.5 1752.81 L2161.06 1752.81 L2161.06 1758.31 L2156.5 1758.31 L2156.5 1752.81 Z" fill="#000000" fill-rule="evenodd" fill-opacity="1" /><path clip-path="url(#clip900)" d="M 0 0 M2165.84 1726.01 L2182.99 1726.01 L2182.99 1729.69 L2169.84 1729.69 L2169.84 1737.61 Q2170.79 1737.28 2171.75 1737.13 Q2172.7 1736.96 2173.65 1736.96 Q2179.06 1736.96 2182.21 1739.92 Q2185.37 1742.88 2185.37 1747.95 Q2185.37 1753.16 2182.13 1756.06 Q2178.88 1758.93 2172.98 1758.93 Q2170.95 1758.93 2168.83 1758.59 Q2166.73 1758.24 2164.48 1757.55 L2164.48 1753.16 Q2166.42 1754.22 2168.5 1754.74 Q2170.58 1755.26 2172.89 1755.26 Q2176.63 1755.26 2178.82 1753.29 Q2181 1751.32 2181 1747.95 Q2181 1744.57 2178.82 1742.6 Q2176.63 1740.63 2172.89 1740.63 Q2171.14 1740.63 2169.39 1741.02 Q2167.66 1741.41 2165.84 1742.24 L2165.84 1726.01 Z" fill="#000000" fill-rule="evenodd" fill-opacity="1" /><path clip-path="url(#clip900)" d="M 0 0 M2580.91 1785.3 L2589.7 1785.3 L2589.7 1754.98 L2580.14 1756.9 L2580.14 1752 L2589.64 1750.08 L2595.02 1750.08 L2595.02 1785.3 L2603.8 1785.3 L2603.8 1789.83 L2580.91 1789.83 L2580.91 1785.3 Z" fill="#000000" fill-rule="evenodd" fill-opacity="1" /><path clip-path="url(#clip900)" d="M 0 0 M2621.13 1753.62 Q2616.98 1753.62 2614.88 1757.72 Q2612.8 1761.8 2612.8 1770 Q2612.8 1778.17 2614.88 1782.27 Q2616.98 1786.34 2621.13 1786.34 Q2625.31 1786.34 2627.39 1782.27 Q2629.49 1778.17 2629.49 1770 Q2629.49 1761.8 2627.39 1757.72 Q2625.31 1753.62 2621.13 1753.62 M2621.13 1749.36 Q2627.82 1749.36 2631.33 1754.66 Q2634.87 1759.93 2634.87 1770 Q2634.87 1780.03 2631.33 1785.33 Q2627.82 1790.6 2621.13 1790.6 Q2614.45 1790.6 2610.91 1785.33 Q2607.4 1780.03 2607.4 1770 Q2607.4 1759.93 2610.91 1754.66 Q2614.45 1749.36 2621.13 1749.36 Z" fill="#000000" fill-rule="evenodd" fill-opacity="1" /><path clip-path="url(#clip900)" d="M 0 0 M2646.4 1740.42 Q2643.46 1740.42 2641.73 1742.43 Q2640.02 1744.44 2640.02 1747.95 Q2640.02 1751.43 2641.73 1753.46 Q2643.46 1755.47 2646.4 1755.47 Q2649.34 1755.47 2651.05 1753.46 Q2652.78 1751.43 2652.78 1747.95 Q2652.78 1744.44 2651.05 1742.43 Q2649.34 1740.42 2646.4 1740.42 M2655.07 1726.73 L2655.07 1730.71 Q2653.43 1729.93 2651.74 1729.52 Q2650.07 1729.11 2648.43 1729.11 Q2644.11 1729.11 2641.81 1732.03 Q2639.54 1734.95 2639.22 1740.85 Q2640.49 1738.97 2642.42 1737.97 Q2644.34 1736.96 2646.66 1736.96 Q2651.52 1736.96 2654.34 1739.92 Q2657.17 1742.86 2657.17 1747.95 Q2657.17 1752.92 2654.23 1755.93 Q2651.29 1758.93 2646.4 1758.93 Q2640.8 1758.93 2637.83 1754.65 Q2634.87 1750.35 2634.87 1742.19 Q2634.87 1734.54 2638.5 1729.99 Q2642.14 1725.43 2648.26 1725.43 Q2649.9 1725.43 2651.57 1725.75 Q2653.25 1726.08 2655.07 1726.73 Z" fill="#000000" fill-rule="evenodd" fill-opacity="1" /><path clip-path="url(#clip900)" d="M 0 0 M2661.91 1752.81 L2666.47 1752.81 L2666.47 1758.31 L2661.91 1758.31 L2661.91 1752.81 Z" fill="#000000" fill-rule="evenodd" fill-opacity="1" /><path clip-path="url(#clip900)" d="M 0 0 M2680.55 1728.89 Q2677.18 1728.89 2675.47 1732.22 Q2673.78 1735.53 2673.78 1742.19 Q2673.78 1748.83 2675.47 1752.16 Q2677.18 1755.47 2680.55 1755.47 Q2683.95 1755.47 2685.63 1752.16 Q2687.34 1748.83 2687.34 1742.19 Q2687.34 1735.53 2685.63 1732.22 Q2683.95 1728.89 2680.55 1728.89 M2680.55 1725.43 Q2685.98 1725.43 2688.83 1729.73 Q2691.71 1734.02 2691.71 1742.19 Q2691.71 1750.35 2688.83 1754.65 Q2685.98 1758.93 2680.55 1758.93 Q2675.12 1758.93 2672.24 1754.65 Q2669.39 1750.35 2669.39 1742.19 Q2669.39 1734.02 2672.24 1729.73 Q2675.12 1725.43 2680.55 1725.43 Z" fill="#000000" fill-rule="evenodd" fill-opacity="1" /><polyline clip-path="url(#clip902)" style="stroke:#000000; stroke-width:2.3; stroke-opacity:0.1; fill:none" points="
  241.353,1452.71 2705.67,1452.71 
  "/>
<polyline clip-path="url(#clip902)" style="stroke:#000000; stroke-width:2.3; stroke-opacity:0.1; fill:none" points="
  241.353,1167.58 2705.67,1167.58 
  "/>
<polyline clip-path="url(#clip902)" style="stroke:#000000; stroke-width:2.3; stroke-opacity:0.1; fill:none" points="
  241.353,882.455 2705.67,882.455 
  "/>
<polyline clip-path="url(#clip902)" style="stroke:#000000; stroke-width:2.3; stroke-opacity:0.1; fill:none" points="
  241.353,597.328 2705.67,597.328 
  "/>
<polyline clip-path="url(#clip902)" style="stroke:#000000; stroke-width:2.3; stroke-opacity:0.1; fill:none" points="
  241.353,312.201 2705.67,312.201 
  "/>
<polyline clip-path="url(#clip900)" style="stroke:#000000; stroke-width:4.6; stroke-opacity:1; fill:none" points="
  241.353,1695.29 241.353,54.3307 
  "/>
<polyline clip-path="url(#clip900)" style="stroke:#000000; stroke-width:4.6; stroke-opacity:1; fill:none" points="
  241.353,1452.71 270.925,1452.71 
  "/>
<polyline clip-path="url(#clip900)" style="stroke:#000000; stroke-width:4.6; stroke-opacity:1; fill:none" points="
  241.353,1167.58 270.925,1167.58 
  "/>
<polyline clip-path="url(#clip900)" style="stroke:#000000; stroke-width:4.6; stroke-opacity:1; fill:none" points="
  241.353,882.455 270.925,882.455 
  "/>
<polyline clip-path="url(#clip900)" style="stroke:#000000; stroke-width:4.6; stroke-opacity:1; fill:none" points="
  241.353,597.328 270.925,597.328 
  "/>
<polyline clip-path="url(#clip900)" style="stroke:#000000; stroke-width:4.6; stroke-opacity:1; fill:none" points="
  241.353,312.201 270.925,312.201 
  "/>
<path clip-path="url(#clip900)" d="M 0 0 M60.9053 1475.47 L69.69 1475.47 L69.69 1445.15 L60.1333 1447.07 L60.1333 1442.17 L69.6368 1440.25 L75.014 1440.25 L75.014 1475.47 L83.7987 1475.47 L83.7987 1480 L60.9053 1480 L60.9053 1475.47 Z" fill="#000000" fill-rule="evenodd" fill-opacity="1" /><path clip-path="url(#clip900)" d="M 0 0 M101.128 1443.79 Q96.9757 1443.79 94.8727 1447.89 Q92.7964 1451.96 92.7964 1460.16 Q92.7964 1468.34 94.8727 1472.44 Q96.9757 1476.51 101.128 1476.51 Q105.308 1476.51 107.384 1472.44 Q109.487 1468.34 109.487 1460.16 Q109.487 1451.96 107.384 1447.89 Q105.308 1443.79 101.128 1443.79 M101.128 1439.53 Q107.81 1439.53 111.324 1444.83 Q114.865 1450.1 114.865 1460.16 Q114.865 1470.2 111.324 1475.5 Q107.81 1480.77 101.128 1480.77 Q94.4468 1480.77 90.9063 1475.5 Q87.3925 1470.2 87.3925 1460.16 Q87.3925 1450.1 90.9063 1444.83 Q94.4468 1439.53 101.128 1439.53 Z" fill="#000000" fill-rule="evenodd" fill-opacity="1" /><path clip-path="url(#clip900)" d="M 0 0 M114.865 1432.75 L142.593 1432.75 L142.593 1436.43 L114.865 1436.43 L114.865 1432.75 Z" fill="#000000" fill-rule="evenodd" fill-opacity="1" /><path clip-path="url(#clip900)" d="M 0 0 M151.093 1444.8 L166.341 1444.8 L166.341 1448.47 L145.837 1448.47 L145.837 1444.8 Q148.324 1442.22 152.607 1437.9 Q156.911 1433.55 158.014 1432.3 Q160.112 1429.94 160.934 1428.32 Q161.778 1426.67 161.778 1425.09 Q161.778 1422.52 159.961 1420.9 Q158.166 1419.27 155.267 1419.27 Q153.213 1419.27 150.92 1419.99 Q148.649 1420.7 146.053 1422.15 L146.053 1417.74 Q148.692 1416.68 150.985 1416.14 Q153.278 1415.6 155.181 1415.6 Q160.199 1415.6 163.184 1418.11 Q166.168 1420.62 166.168 1424.81 Q166.168 1426.8 165.411 1428.6 Q164.676 1430.37 162.708 1432.79 Q162.167 1433.42 159.269 1436.43 Q156.37 1439.41 151.093 1444.8 Z" fill="#000000" fill-rule="evenodd" fill-opacity="1" /><path clip-path="url(#clip900)" d="M 0 0 M171.078 1442.98 L175.642 1442.98 L175.642 1448.47 L171.078 1448.47 L171.078 1442.98 Z" fill="#000000" fill-rule="evenodd" fill-opacity="1" /><path clip-path="url(#clip900)" d="M 0 0 M180.422 1416.18 L197.574 1416.18 L197.574 1419.86 L184.423 1419.86 L184.423 1427.77 Q185.375 1427.45 186.327 1427.3 Q187.278 1427.13 188.23 1427.13 Q193.637 1427.13 196.795 1430.09 Q199.953 1433.05 199.953 1438.11 Q199.953 1443.33 196.708 1446.22 Q193.464 1449.1 187.559 1449.1 Q185.526 1449.1 183.407 1448.75 Q181.309 1448.41 179.059 1447.72 L179.059 1443.33 Q181.006 1444.39 183.082 1444.9 Q185.159 1445.42 187.473 1445.42 Q191.215 1445.42 193.399 1443.46 Q195.584 1441.49 195.584 1438.11 Q195.584 1434.74 193.399 1432.77 Q191.215 1430.8 187.473 1430.8 Q185.721 1430.8 183.969 1431.19 Q182.239 1431.58 180.422 1432.4 L180.422 1416.18 Z" fill="#000000" fill-rule="evenodd" fill-opacity="1" /><path clip-path="url(#clip900)" d="M 0 0 M59.9753 1190.34 L68.76 1190.34 L68.76 1160.02 L59.2033 1161.94 L59.2033 1157.04 L68.7067 1155.12 L74.084 1155.12 L74.084 1190.34 L82.8687 1190.34 L82.8687 1194.87 L59.9753 1194.87 L59.9753 1190.34 Z" fill="#000000" fill-rule="evenodd" fill-opacity="1" /><path clip-path="url(#clip900)" d="M 0 0 M100.198 1158.67 Q96.0457 1158.67 93.9427 1162.76 Q91.8663 1166.84 91.8663 1175.04 Q91.8663 1183.21 93.9427 1187.31 Q96.0457 1191.38 100.198 1191.38 Q104.378 1191.38 106.454 1187.31 Q108.557 1183.21 108.557 1175.04 Q108.557 1166.84 106.454 1162.76 Q104.378 1158.67 100.198 1158.67 M100.198 1154.41 Q106.88 1154.41 110.394 1159.7 Q113.934 1164.97 113.934 1175.04 Q113.934 1185.07 110.394 1190.37 Q106.88 1195.64 100.198 1195.64 Q93.5168 1195.64 89.9763 1190.37 Q86.4624 1185.07 86.4624 1175.04 Q86.4624 1164.97 89.9763 1159.7 Q93.5168 1154.41 100.198 1154.41 Z" fill="#000000" fill-rule="evenodd" fill-opacity="1" /><path clip-path="url(#clip900)" d="M 0 0 M113.934 1147.62 L141.663 1147.62 L141.663 1151.3 L113.934 1151.3 L113.934 1147.62 Z" fill="#000000" fill-rule="evenodd" fill-opacity="1" /><path clip-path="url(#clip900)" d="M 0 0 M150.163 1159.67 L165.411 1159.67 L165.411 1163.35 L144.907 1163.35 L144.907 1159.67 Q147.394 1157.1 151.677 1152.77 Q155.981 1148.42 157.084 1147.17 Q159.182 1144.81 160.004 1143.19 Q160.848 1141.54 160.848 1139.97 Q160.848 1137.39 159.031 1135.77 Q157.236 1134.15 154.337 1134.15 Q152.283 1134.15 149.99 1134.86 Q147.719 1135.58 145.123 1137.02 L145.123 1132.61 Q147.762 1131.55 150.055 1131.01 Q152.347 1130.47 154.251 1130.47 Q159.269 1130.47 162.254 1132.98 Q165.238 1135.49 165.238 1139.68 Q165.238 1141.67 164.481 1143.47 Q163.746 1145.24 161.778 1147.67 Q161.237 1148.29 158.339 1151.3 Q155.44 1154.28 150.163 1159.67 Z" fill="#000000" fill-rule="evenodd" fill-opacity="1" /><path clip-path="url(#clip900)" d="M 0 0 M170.148 1157.85 L174.712 1157.85 L174.712 1163.35 L170.148 1163.35 L170.148 1157.85 Z" fill="#000000" fill-rule="evenodd" fill-opacity="1" /><path clip-path="url(#clip900)" d="M 0 0 M188.792 1133.93 Q185.418 1133.93 183.709 1137.26 Q182.022 1140.57 182.022 1147.23 Q182.022 1153.87 183.709 1157.2 Q185.418 1160.51 188.792 1160.51 Q192.188 1160.51 193.875 1157.2 Q195.584 1153.87 195.584 1147.23 Q195.584 1140.57 193.875 1137.26 Q192.188 1133.93 188.792 1133.93 M188.792 1130.47 Q194.221 1130.47 197.076 1134.77 Q199.953 1139.06 199.953 1147.23 Q199.953 1155.39 197.076 1159.69 Q194.221 1163.97 188.792 1163.97 Q183.363 1163.97 180.487 1159.69 Q177.632 1155.39 177.632 1147.23 Q177.632 1139.06 180.487 1134.77 Q183.363 1130.47 188.792 1130.47 Z" fill="#000000" fill-rule="evenodd" fill-opacity="1" /><path clip-path="url(#clip900)" d="M 0 0 M60.5593 905.216 L69.3439 905.216 L69.3439 874.896 L59.7873 876.813 L59.7873 871.915 L69.2907 869.998 L74.668 869.998 L74.668 905.216 L83.4527 905.216 L83.4527 909.742 L60.5593 909.742 L60.5593 905.216 Z" fill="#000000" fill-rule="evenodd" fill-opacity="1" /><path clip-path="url(#clip900)" d="M 0 0 M100.782 873.538 Q96.6297 873.538 94.5267 877.638 Q92.4503 881.711 92.4503 889.91 Q92.4503 898.082 94.5267 902.182 Q96.6297 906.255 100.782 906.255 Q104.962 906.255 107.038 902.182 Q109.141 898.082 109.141 889.91 Q109.141 881.711 107.038 877.638 Q104.962 873.538 100.782 873.538 M100.782 869.279 Q107.464 869.279 110.978 874.577 Q114.518 879.847 114.518 889.91 Q114.518 899.946 110.978 905.243 Q107.464 910.514 100.782 910.514 Q94.1008 910.514 90.5603 905.243 Q87.0464 899.946 87.0464 889.91 Q87.0464 879.847 90.5603 874.577 Q94.1008 869.279 100.782 869.279 Z" fill="#000000" fill-rule="evenodd" fill-opacity="1" /><path clip-path="url(#clip900)" d="M 0 0 M114.518 862.496 L142.247 862.496 L142.247 866.173 L114.518 866.173 L114.518 862.496 Z" fill="#000000" fill-rule="evenodd" fill-opacity="1" /><path clip-path="url(#clip900)" d="M 0 0 M147.741 874.543 L154.878 874.543 L154.878 849.908 L147.113 851.465 L147.113 847.485 L154.835 845.928 L159.204 845.928 L159.204 874.543 L166.341 874.543 L166.341 878.22 L147.741 878.22 L147.741 874.543 Z" fill="#000000" fill-rule="evenodd" fill-opacity="1" /><path clip-path="url(#clip900)" d="M 0 0 M171.078 872.726 L175.642 872.726 L175.642 878.22 L171.078 878.22 L171.078 872.726 Z" fill="#000000" fill-rule="evenodd" fill-opacity="1" /><path clip-path="url(#clip900)" d="M 0 0 M180.422 845.928 L197.574 845.928 L197.574 849.605 L184.423 849.605 L184.423 857.521 Q185.375 857.197 186.327 857.045 Q187.278 856.872 188.23 856.872 Q193.637 856.872 196.795 859.835 Q199.953 862.798 199.953 867.86 Q199.953 873.072 196.708 875.97 Q193.464 878.847 187.559 878.847 Q185.526 878.847 183.407 878.501 Q181.309 878.155 179.059 877.463 L179.059 873.072 Q181.006 874.132 183.082 874.651 Q185.159 875.17 187.473 875.17 Q191.215 875.17 193.399 873.202 Q195.584 871.234 195.584 867.86 Q195.584 864.486 193.399 862.517 Q191.215 860.549 187.473 860.549 Q185.721 860.549 183.969 860.938 Q182.239 861.328 180.422 862.15 L180.422 845.928 Z" fill="#000000" fill-rule="evenodd" fill-opacity="1" /><path clip-path="url(#clip900)" d="M 0 0 M59.6292 620.09 L68.4139 620.09 L68.4139 589.769 L58.8572 591.686 L58.8572 586.788 L68.3607 584.871 L73.7379 584.871 L73.7379 620.09 L82.5226 620.09 L82.5226 624.615 L59.6292 624.615 L59.6292 620.09 Z" fill="#000000" fill-rule="evenodd" fill-opacity="1" /><path clip-path="url(#clip900)" d="M 0 0 M99.8524 588.411 Q95.6996 588.411 93.5966 592.511 Q91.5203 596.584 91.5203 604.783 Q91.5203 612.955 93.5966 617.055 Q95.6996 621.128 99.8524 621.128 Q104.032 621.128 106.108 617.055 Q108.211 612.955 108.211 604.783 Q108.211 596.584 106.108 592.511 Q104.032 588.411 99.8524 588.411 M99.8524 584.152 Q106.534 584.152 110.048 589.45 Q113.588 594.72 113.588 604.783 Q113.588 614.819 110.048 620.116 Q106.534 625.387 99.8524 625.387 Q93.1707 625.387 89.6302 620.116 Q86.1163 614.819 86.1163 604.783 Q86.1163 594.72 89.6302 589.45 Q93.1707 584.152 99.8524 584.152 Z" fill="#000000" fill-rule="evenodd" fill-opacity="1" /><path clip-path="url(#clip900)" d="M 0 0 M113.588 577.369 L141.317 577.369 L141.317 581.046 L113.588 581.046 L113.588 577.369 Z" fill="#000000" fill-rule="evenodd" fill-opacity="1" /><path clip-path="url(#clip900)" d="M 0 0 M146.81 589.416 L153.948 589.416 L153.948 564.781 L146.183 566.338 L146.183 562.358 L153.905 560.801 L158.274 560.801 L158.274 589.416 L165.411 589.416 L165.411 593.093 L146.81 593.093 L146.81 589.416 Z" fill="#000000" fill-rule="evenodd" fill-opacity="1" /><path clip-path="url(#clip900)" d="M 0 0 M170.148 587.599 L174.712 587.599 L174.712 593.093 L170.148 593.093 L170.148 587.599 Z" fill="#000000" fill-rule="evenodd" fill-opacity="1" /><path clip-path="url(#clip900)" d="M 0 0 M188.792 563.678 Q185.418 563.678 183.709 567.009 Q182.022 570.318 182.022 576.979 Q182.022 583.62 183.709 586.95 Q185.418 590.26 188.792 590.26 Q192.188 590.26 193.875 586.95 Q195.584 583.62 195.584 576.979 Q195.584 570.318 193.875 567.009 Q192.188 563.678 188.792 563.678 M188.792 560.217 Q194.221 560.217 197.076 564.521 Q199.953 568.804 199.953 576.979 Q199.953 585.134 197.076 589.438 Q194.221 593.72 188.792 593.72 Q183.363 593.72 180.487 589.438 Q177.632 585.134 177.632 576.979 Q177.632 568.804 180.487 564.521 Q183.363 560.217 188.792 560.217 Z" fill="#000000" fill-rule="evenodd" fill-opacity="1" /><path clip-path="url(#clip900)" d="M 0 0 M59.4129 334.963 L68.1976 334.963 L68.1976 304.642 L58.6409 306.559 L58.6409 301.661 L68.1444 299.744 L73.5217 299.744 L73.5217 334.963 L82.3063 334.963 L82.3063 339.488 L59.4129 339.488 L59.4129 334.963 Z" fill="#000000" fill-rule="evenodd" fill-opacity="1" /><path clip-path="url(#clip900)" d="M 0 0 M99.6361 303.285 Q95.4833 303.285 93.3803 307.384 Q91.304 311.457 91.304 319.656 Q91.304 327.828 93.3803 331.928 Q95.4833 336.001 99.6361 336.001 Q103.815 336.001 105.892 331.928 Q107.995 327.828 107.995 319.656 Q107.995 311.457 105.892 307.384 Q103.815 303.285 99.6361 303.285 M99.6361 299.025 Q106.318 299.025 109.832 304.323 Q113.372 309.594 113.372 319.656 Q113.372 329.692 109.832 334.989 Q106.318 340.26 99.6361 340.26 Q92.9544 340.26 89.4139 334.989 Q85.9001 329.692 85.9001 319.656 Q85.9001 309.594 89.4139 304.323 Q92.9544 299.025 99.6361 299.025 Z" fill="#000000" fill-rule="evenodd" fill-opacity="1" /><path clip-path="url(#clip900)" d="M 0 0 M113.372 292.242 L141.1 292.242 L141.1 295.919 L113.372 295.919 L113.372 292.242 Z" fill="#000000" fill-rule="evenodd" fill-opacity="1" /><path clip-path="url(#clip900)" d="M 0 0 M155.181 278.551 Q151.807 278.551 150.098 281.882 Q148.411 285.191 148.411 291.853 Q148.411 298.493 150.098 301.823 Q151.807 305.133 155.181 305.133 Q158.577 305.133 160.264 301.823 Q161.972 298.493 161.972 291.853 Q161.972 285.191 160.264 281.882 Q158.577 278.551 155.181 278.551 M155.181 275.09 Q160.61 275.09 163.465 279.394 Q166.341 283.677 166.341 291.853 Q166.341 300.007 163.465 304.311 Q160.61 308.593 155.181 308.593 Q149.752 308.593 146.875 304.311 Q144.02 300.007 144.02 291.853 Q144.02 283.677 146.875 279.394 Q149.752 275.09 155.181 275.09 Z" fill="#000000" fill-rule="evenodd" fill-opacity="1" /><path clip-path="url(#clip900)" d="M 0 0 M171.078 302.472 L175.642 302.472 L175.642 307.966 L171.078 307.966 L171.078 302.472 Z" fill="#000000" fill-rule="evenodd" fill-opacity="1" /><path clip-path="url(#clip900)" d="M 0 0 M180.422 275.674 L197.574 275.674 L197.574 279.351 L184.423 279.351 L184.423 287.267 Q185.375 286.943 186.327 286.791 Q187.278 286.618 188.23 286.618 Q193.637 286.618 196.795 289.581 Q199.953 292.545 199.953 297.606 Q199.953 302.818 196.708 305.717 Q193.464 308.593 187.559 308.593 Q185.526 308.593 183.407 308.247 Q181.309 307.901 179.059 307.209 L179.059 302.818 Q181.006 303.878 183.082 304.397 Q185.159 304.916 187.473 304.916 Q191.215 304.916 193.399 302.948 Q195.584 300.98 195.584 297.606 Q195.584 294.232 193.399 292.263 Q191.215 290.295 187.473 290.295 Q185.721 290.295 183.969 290.685 Q182.239 291.074 180.422 291.896 L180.422 275.674 Z" fill="#000000" fill-rule="evenodd" fill-opacity="1" /><polyline clip-path="url(#clip902)" style="stroke:#009af9; stroke-width:4.6; stroke-opacity:1; fill:none" points="
  311.098,1648.85 615.241,1495.46 919.384,1301.14 1321.44,996.244 1499.35,975.416 1625.58,992.129 1740.7,946.977 1858.41,907.723 1929.73,761.621 2233.87,516.488 
  2331.78,477.263 2635.92,339.044 
  "/>
<polyline clip-path="url(#clip902)" style="stroke:#e26f46; stroke-width:4.6; stroke-opacity:1; fill:none" points="
  311.098,1308.63 615.241,1293.29 919.384,1204.09 1321.44,1102.11 1499.35,1034.07 1625.58,1030.65 1740.7,942.058 1858.41,867.05 1929.73,800.937 2233.87,537.714 
  2331.78,439.531 2635.92,100.773 
  "/>
<path clip-path="url(#clip900)" d="
M323.497 317.685 L694.367 317.685 L694.367 109.029 L323.497 109.029  Z
  " fill="#ffffff" fill-rule="evenodd" fill-opacity="1"/>
<polyline clip-path="url(#clip900)" style="stroke:#000000; stroke-width:4.6; stroke-opacity:1; fill:none" points="
  323.497,317.685 694.367,317.685 694.367,109.029 323.497,109.029 323.497,317.685 
  "/>
<polyline clip-path="url(#clip900)" style="stroke:#009af9; stroke-width:4.6; stroke-opacity:1; fill:none" points="
  350.878,178.581 515.166,178.581 
  "/>
<path clip-path="url(#clip900)" d="M 0 0 M564.296 173.164 L564.296 157.032 L569.194 157.032 L569.194 198.453 L564.296 198.453 L564.296 193.981 Q562.752 196.643 560.383 197.948 Q558.04 199.225 554.739 199.225 Q549.335 199.225 545.928 194.913 Q542.547 190.6 542.547 183.573 Q542.547 176.545 545.928 172.232 Q549.335 167.92 554.739 167.92 Q558.04 167.92 560.383 169.224 Q562.752 170.502 564.296 173.164 M547.605 183.573 Q547.605 188.977 549.814 192.064 Q552.05 195.126 555.937 195.126 Q559.824 195.126 562.06 192.064 Q564.296 188.977 564.296 183.573 Q564.296 178.169 562.06 175.107 Q559.824 172.019 555.937 172.019 Q552.05 172.019 549.814 175.107 Q547.605 178.169 547.605 183.573 Z" fill="#000000" fill-rule="evenodd" fill-opacity="1" /><path clip-path="url(#clip900)" d="M 0 0 M574.332 168.639 L579.23 168.639 L579.23 198.453 L574.332 198.453 L574.332 168.639 M574.332 157.032 L579.23 157.032 L579.23 163.235 L574.332 163.235 L574.332 157.032 Z" fill="#000000" fill-rule="evenodd" fill-opacity="1" /><path clip-path="url(#clip900)" d="M 0 0 M605.823 169.783 L605.823 174.362 Q603.747 173.217 601.644 172.658 Q599.568 172.073 597.438 172.073 Q592.673 172.073 590.037 175.107 Q587.402 178.115 587.402 183.573 Q587.402 189.03 590.037 192.064 Q592.673 195.073 597.438 195.073 Q599.568 195.073 601.644 194.514 Q603.747 193.928 605.823 192.783 L605.823 197.309 Q603.774 198.267 601.564 198.746 Q599.381 199.225 596.906 199.225 Q590.171 199.225 586.204 194.993 Q582.238 190.76 582.238 183.573 Q582.238 176.279 586.231 172.099 Q590.25 167.92 597.225 167.92 Q599.488 167.92 601.644 168.399 Q603.8 168.852 605.823 169.783 Z" fill="#000000" fill-rule="evenodd" fill-opacity="1" /><path clip-path="url(#clip900)" d="M 0 0 M615.806 160.173 L615.806 168.639 L625.895 168.639 L625.895 172.445 L615.806 172.445 L615.806 188.63 Q615.806 192.277 616.791 193.316 Q617.802 194.354 620.864 194.354 L625.895 194.354 L625.895 198.453 L620.864 198.453 Q615.194 198.453 613.037 196.35 Q610.881 194.221 610.881 188.63 L610.881 172.445 L607.287 172.445 L607.287 168.639 L610.881 168.639 L610.881 160.173 L615.806 160.173 Z" fill="#000000" fill-rule="evenodd" fill-opacity="1" /><polyline clip-path="url(#clip900)" style="stroke:#e26f46; stroke-width:4.6; stroke-opacity:1; fill:none" points="
  350.878,248.133 515.166,248.133 
  "/>
<path clip-path="url(#clip900)" d="M 0 0 M542.547 228.261 L547.924 228.261 L547.924 263.48 L567.277 263.48 L567.277 268.005 L542.547 268.005 L542.547 228.261 Z" fill="#000000" fill-rule="evenodd" fill-opacity="1" /><path clip-path="url(#clip900)" d="M 0 0 M572.628 228.261 L579.869 228.261 L597.491 261.51 L597.491 228.261 L602.709 228.261 L602.709 268.005 L595.468 268.005 L577.845 234.757 L577.845 268.005 L572.628 268.005 L572.628 228.261 Z" fill="#000000" fill-rule="evenodd" fill-opacity="1" /><path clip-path="url(#clip900)" d="M 0 0 M608.059 228.261 L613.437 228.261 L613.437 245.059 L631.272 228.261 L638.193 228.261 L618.468 246.789 L639.604 268.005 L632.523 268.005 L613.437 248.865 L613.437 268.005 L608.059 268.005 L608.059 228.261 Z" fill="#000000" fill-rule="evenodd" fill-opacity="1" /></svg>
